<?xml version="1.0" standalone="no"?>
<!DOCTYPE svg PUBLIC "-//W3C//DTD SVG 20010904//EN"
 "http://www.w3.org/TR/2001/REC-SVG-20010904/DTD/svg10.dtd">
<svg version="1.0" xmlns="http://www.w3.org/2000/svg"
 width="834.000000pt" height="834.000000pt" viewBox="0 0 834.000000 834.000000"
 preserveAspectRatio="xMidYMid meet">
<metadata>
Created by potrace 1.11, written by Peter Selinger 2001-2013
</metadata>
<g transform="translate(0.000000,834.000000) scale(0.100000,-0.100000)"
fill="#000000" stroke="none">
<path d="M3902 7877 l-302 -302 310 -310 310 -310 307 308 308 307 -305 305
c-168 168 -309 305 -315 305 -6 0 -146 -136 -313 -303z"/>
<path d="M2490 6852 c0 -515 3 -740 11 -755 6 -12 360 -372 787 -799 l777
-778 -93 -92 -92 -93 -788 788 -787 787 -739 0 -740 0 714 -717 c392 -395 748
-753 791 -795 l78 -78 731 0 c401 0 730 -3 730 -7 0 -5 -30 -34 -66 -67 l-66
-59 61 -61 c34 -34 61 -65 61 -69 0 -4 -325 -7 -723 -7 l-722 0 -795 -795
-795 -795 740 0 740 0 787 787 788 788 93 -93 93 -92 -788 -789 -788 -788 0
-736 c0 -405 3 -737 8 -739 4 -2 361 353 795 787 l787 791 0 725 c0 399 3 729
7 732 3 4 35 -23 69 -60 l62 -68 66 65 66 64 0 -729 0 -730 787 -787 c433
-434 791 -788 795 -788 5 0 8 332 8 737 l0 737 -788 788 -787 788 93 93 92 92
777 -777 c427 -427 788 -782 802 -788 18 -7 259 -9 747 -8 l722 3 -787 793
-786 793 -727 -1 c-401 0 -728 3 -728 7 0 4 28 36 62 71 l63 63 -63 57 c-34
31 -62 60 -62 65 0 4 327 7 727 7 l728 0 768 768 c423 422 777 779 788 795
l20 27 -738 0 -738 1 -786 -789 -787 -789 -94 93 -93 94 787 788 788 787 0
745 0 745 -795 -795 -795 -796 0 -734 0 -734 -68 67 -67 67 -68 -67 -67 -68 0
735 0 735 -795 795 -795 795 0 -733z m1810 -2757 l-90 -90 -87 88 -88 87 90
90 90 90 87 -87 88 -88 -90 -90z"/>
<path d="M7295 4490 l-310 -310 308 -307 307 -308 310 310 310 310 -308 308
-307 307 -310 -310z"/>
<path d="M520 4485 l-305 -305 305 -305 305 -305 310 310 310 311 -302 299
c-166 165 -305 300 -310 300 -4 0 -145 -137 -313 -305z"/>
<path d="M3910 1105 l-305 -305 308 -308 307 -307 305 305 305 305 -308 308
-307 307 -305 -305z"/>
</g>
</svg>
