<svg width="95" height="95" viewBox="0 0 95 95" version="1.1" xmlns="http://www.w3.org/2000/svg" xmlns:xlink="http://www.w3.org/1999/xlink">
<title>dream-team_logo</title>
<desc>Created using Figma</desc>
<g id="Canvas" transform="translate(-771 -2747)">
<g id="dream-team_logo">
<g id="Group">
<g id="&#208;&#161;&#208;&#187;&#208;&#190;&#208;&#185; 1">
<g id="Vector">
<use xlink:href="#path0_fill" transform="translate(771 2747)" fill="url(#paint0_linear)"/>
</g>
<g id="Vector">
<use xlink:href="#path1_fill" transform="translate(776.24 2776.46)" fill="#FFFFFF"/>
</g>
<g id="Vector">
<use xlink:href="#path2_fill" transform="translate(792.87 2779.49)" fill="#FFFFFF"/>
</g>
<g id="Vector">
<use xlink:href="#path3_fill" transform="translate(800.44 2779.47)" fill="#FFFFFF"/>
</g>
<g id="Vector">
<use xlink:href="#path4_fill" transform="translate(814.436 2779.51)" fill="#FFFFFF"/>
</g>
<g id="Vector">
<use xlink:href="#path5_fill" transform="translate(829.03 2779.45)" fill="#FFFFFF"/>
</g>
<g id="Vector">
<use xlink:href="#path6_fill" transform="translate(800.017 2795.91)" fill="#FFFFFF"/>
</g>
<g id="Vector">
<use xlink:href="#path7_fill" transform="translate(813.23 2798.57)" fill="#FFFFFF"/>
</g>
<g id="Vector">
<use xlink:href="#path8_fill" transform="translate(827.249 2798.67)" fill="#FFFFFF"/>
</g>
<g id="Vector">
<use xlink:href="#path9_fill" transform="translate(841.84 2798.65)" fill="#FFFFFF"/>
</g>
<g id="Group">
<g id="Group" style="mix-blend-mode:darken" opacity="0.75">
<g id="Vector" style="mix-blend-mode:darken" opacity="0.75">
<use xlink:href="#path1_fill" transform="translate(776.24 2776.46)" fill="#FFFFFF"/>
</g>
<g id="Vector" style="mix-blend-mode:darken" opacity="0.75">
<use xlink:href="#path2_fill" transform="translate(792.87 2779.49)" fill="#FFFFFF"/>
</g>
<g id="Vector" style="mix-blend-mode:darken" opacity="0.75">
<use xlink:href="#path3_fill" transform="translate(800.44 2779.47)" fill="#FFFFFF"/>
</g>
<g id="Vector" style="mix-blend-mode:darken" opacity="0.75">
<use xlink:href="#path4_fill" transform="translate(814.436 2779.51)" fill="#FFFFFF"/>
</g>
<g id="Vector" style="mix-blend-mode:darken" opacity="0.75">
<use xlink:href="#path5_fill" transform="translate(829.03 2779.45)" fill="#FFFFFF"/>
</g>
<g id="Vector" style="mix-blend-mode:darken" opacity="0.75">
<use xlink:href="#path6_fill" transform="translate(800.017 2795.91)" fill="#FFFFFF"/>
</g>
<g id="Vector" style="mix-blend-mode:darken" opacity="0.75">
<use xlink:href="#path7_fill" transform="translate(813.23 2798.57)" fill="#FFFFFF"/>
</g>
<g id="Vector" style="mix-blend-mode:darken" opacity="0.75">
<use xlink:href="#path8_fill" transform="translate(827.249 2798.67)" fill="#FFFFFF"/>
</g>
<g id="Vector" style="mix-blend-mode:darken" opacity="0.75">
<use xlink:href="#path9_fill" transform="translate(841.84 2798.65)" fill="#FFFFFF"/>
</g>
</g>
</g>
</g>
</g>
</g>
</g>
<defs>
<linearGradient id="paint0_linear" x1="0" y1="0" x2="1" y2="0" gradientUnits="userSpaceOnUse" gradientTransform="matrix(77.2 -54.06 54.06 77.2 -18.51 35.55)">
<stop offset="0" stop-color="#4384D1"/>
<stop offset="1" stop-color="#8FD5FF"/>
</linearGradient>
<path id="path0_fill" d="M 47.12 94.24C 73.1437 94.24 94.24 73.1437 94.24 47.12C 94.24 21.0963 73.1437 0 47.12 0C 21.0963 0 0 21.0963 0 47.12C 0 73.1437 21.0963 94.24 47.12 94.24Z"/>
<path id="path1_fill" d="M 11.64 2.06007C 10.769 1.36683 9.77492 0.844341 8.71 0.520069C 7.58649 0.171337 6.41638 -0.00401231 5.24 6.89453e-05C 4.28 6.89453e-05 3.35333 0.0367362 2.46 0.11007C 1.56667 0.183403 0.746667 0.263403 -1.14441e-07 0.350069L -1.14441e-07 15.7801C 0.276757 15.8402 0.557483 15.8803 0.84 15.9001L 2.06 15.9901L 3.47 15.9901L 4.88 15.9901C 6.12209 15.9973 7.35961 15.8393 8.56 15.5201C 9.64447 15.2306 10.663 14.7349 11.56 14.0601C 12.4364 13.3908 13.1422 12.5239 13.62 11.5301C 14.138 10.4122 14.3978 9.19202 14.38 7.96007C 14.4044 6.77884 14.1437 5.60913 13.62 4.55007C 13.1428 3.58985 12.4681 2.74131 11.64 2.06007ZM 11.64 10.7001C 11.2403 11.4445 10.6718 12.0849 9.98 12.5701C 9.2527 13.0737 8.43926 13.4397 7.58 13.6501C 6.64171 13.8862 5.67753 14.0038 4.71 14.0001C 4.35 14.0001 3.93 13.9801 3.45 13.9401C 3.02327 13.9184 2.59876 13.865 2.18 13.7801L 2.18 2.36007C 2.52667 2.3134 2.94 2.26673 3.42 2.22007C 3.9 2.1734 4.40333 2.1534 4.93 2.16007C 5.80315 2.16076 6.67294 2.26823 7.52 2.48007C 8.35456 2.67716 9.14932 3.01536 9.87 3.48007C 10.5679 3.93985 11.1526 4.55185 11.58 5.27007C 12.04 6.07934 12.2684 6.99963 12.24 7.93007C 12.2698 8.89087 12.0565 9.84364 11.62 10.7001L 11.64 10.7001Z"/>
<path id="path2_fill" d="M 7.43 0L 6.16 0C 5.82587 0.00311108 5.49211 0.0231381 5.16 0.0600014C 4.76899 0.102931 4.38355 0.186722 4.01 0.310001C 3.6512 0.43375 3.31384 0.612553 3.01 0.84C 2.69696 1.0693 2.44886 1.37598 2.29 1.73L 2.29 0.439999L 0 0.439999L 0 12.85L 2.25 12.85L 2.25 5.97C 2.23866 5.4477 2.34306 4.92936 2.55572 4.45217C 2.76838 3.97499 3.08402 3.55078 3.48 3.21C 3.85144 2.88345 4.28275 2.63213 4.75 2.47C 5.23285 2.30474 5.73965 2.22028 6.25 2.22L 7.45 2.22L 7.43 0Z"/>
<path id="path3_fill" d="M 1.59 7.77049L 1.59 7.89049C 1.60949 8.66684 1.78284 9.43161 2.1 10.1405C 2.38763 10.7608 2.79945 11.3156 3.31 11.7705C 3.83262 12.2165 4.43726 12.5561 5.09 12.7705C 5.81105 13.0158 6.56839 13.1375 7.33 13.1305C 8.23635 13.1469 9.13699 12.9838 9.98 12.6505C 10.6856 12.3597 11.3565 11.9907 11.98 11.5505L 11.98 9.21049C 11.6333 9.44382 11.3 9.65716 10.98 9.85049C 10.6325 10.0487 10.2716 10.2224 9.9 10.3705C 9.51522 10.5243 9.11679 10.6415 8.71 10.7205C 8.25827 10.8045 7.79947 10.8447 7.34 10.8405C 6.46407 10.8708 5.60381 10.6028 4.9 10.0805C 4.56673 9.81845 4.30174 9.47972 4.12762 9.09318C 3.9535 8.70663 3.87541 8.28372 3.9 7.86049L 3.9 7.77049L 4.17 7.77049L 4.49 7.77049C 4.90333 7.77049 5.36 7.77049 5.86 7.77049C 6.36 7.77049 6.8 7.77049 7.18 7.77049C 7.98711 7.77725 8.79132 7.67294 9.57 7.46049C 10.3322 7.23234 10.997 6.75748 11.46 6.11049C 11.9518 5.50895 12.2235 4.75748 12.23 3.98049C 12.2477 3.27139 12.0488 2.57374 11.66 1.98049C 11.295 1.41908 10.8013 0.952847 10.22 0.620486C 9.43604 0.201694 8.55873 -0.01161 7.67 0.000486835C 6.85279 -0.00730272 6.04052 0.128077 5.27 0.400488C 4.57702 0.644508 3.93839 1.02157 3.39 1.51049C 2.87173 2.01697 2.46028 2.62223 2.18 3.29049C 1.86161 3.97571 1.67826 4.71588 1.64 5.47049L 0.819999 5.54049C 0.54192 5.55969 0.26687 5.61 -3.05176e-07 5.69049L -3.05176e-07 7.94049C 0.259266 7.84263 0.532999 7.78856 0.810001 7.78049C 1.05667 7.77382 1.31667 7.77049 1.59 7.77049ZM 4.35 4.07049C 4.58253 3.67587 4.8961 3.33504 5.27 3.07049C 5.65302 2.80296 6.07925 2.60338 6.53 2.48049C 7.00854 2.34688 7.50316 2.27959 8 2.28049C 8.52679 2.27177 9.04692 2.39922 9.51 2.65049C 9.72191 2.77134 9.89649 2.94813 10.0147 3.16154C 10.1328 3.37495 10.19 3.61675 10.18 3.86049C 10.1909 4.1526 10.1067 4.44035 9.94 4.68049C 9.77878 4.89923 9.56573 5.07448 9.32 5.19049C 9.04229 5.32133 8.74502 5.40578 8.44 5.44049C 8.10825 5.48136 7.77426 5.5014 7.44 5.50049L 6.29 5.50049C 5.88333 5.50049 5.55 5.48049 5.29 5.44049L 3.95 5.44049C 3.9778 4.94358 4.11434 4.45884 4.35 4.02049L 4.35 4.07049Z"/>
<path id="path4_fill" d="M 10.8042 5.45008L 10.8042 5.33007C 10.8106 4.4946 10.6543 3.66587 10.3442 2.89007C 10.0924 2.2714 9.70457 1.71734 9.20947 1.26898C 8.71437 0.820618 8.12469 0.489465 7.48416 0.300075C 6.81629 0.0979592 6.12195 -0.00315795 5.42416 7.56197e-05C 4.80415 -0.00119307 4.18739 0.0898038 3.59416 0.270076C 3.01717 0.443451 2.47547 0.717687 1.99416 1.08007C 1.51737 1.44403 1.1222 1.90393 0.834165 2.43008C 0.516784 3.01906 0.335662 3.67177 0.304162 4.34008L 2.58416 4.34008C 2.5872 3.98502 2.69125 3.63817 2.88416 3.34008C 3.06489 3.06832 3.2998 2.83682 3.57416 2.66008C 3.86232 2.47398 4.18027 2.33869 4.51416 2.26007C 4.86489 2.17823 5.22403 2.13796 5.58416 2.14007C 5.9567 2.13906 6.32735 2.19297 6.68416 2.30007C 7.04444 2.39652 7.38356 2.55931 7.68416 2.78007C 7.96846 2.99999 8.20066 3.27999 8.36416 3.60007C 8.54397 3.95981 8.63322 4.35801 8.62416 4.76007L 8.62416 5.08007C 8.6382 5.19632 8.6382 5.31383 8.62416 5.43008L 8.62416 5.53007C 7.97015 5.32375 7.30162 5.16665 6.62416 5.06008C 5.99865 4.96414 5.36697 4.91401 4.73416 4.91008C 4.104 4.90337 3.47557 4.97731 2.86416 5.13008C 2.32488 5.26434 1.81814 5.5058 1.37416 5.84008C 0.943577 6.16865 0.600203 6.59787 0.374162 7.09008C 0.121723 7.66639 -0.00116363 8.29108 0.0141648 8.92007C -0.0395538 9.53808 0.0600544 10.1598 0.304162 10.7301C 0.576164 11.2383 0.95481 11.6818 1.41416 12.0301C 1.88379 12.3805 2.41202 12.6447 2.97416 12.8101C 3.53503 12.9808 4.11789 13.0684 4.70416 13.0701C 5.41535 13.0799 6.12275 12.9648 6.79416 12.7301C 7.4751 12.481 8.07385 12.0484 8.52416 11.4801L 8.52416 12.7701L 10.8042 12.7701L 10.8042 12.3301C 10.8042 12.0434 10.8042 11.6634 10.8042 11.1901C 10.8042 10.7167 10.8042 10.1801 10.8042 9.58007L 10.8042 7.73008L 12.3442 7.48008L 12.3442 5.15007L 11.5342 5.32008L 10.8042 5.45008ZM 8.55416 8.65007C 8.51695 8.91344 8.40991 9.16205 8.24416 9.37007C 8.02994 9.66024 7.76987 9.91356 7.47416 10.1201C 7.13474 10.3638 6.76495 10.5621 6.37416 10.7101C 5.95597 10.87 5.51187 10.9513 5.06416 10.9501C 4.68896 10.9524 4.3153 10.9019 3.95416 10.8001C 3.62838 10.7111 3.31812 10.5729 3.03416 10.3901C 2.78569 10.2307 2.57152 10.0233 2.40416 9.78007C 2.24757 9.55386 2.16383 9.2852 2.16416 9.01007C 2.15229 8.69777 2.24756 8.39079 2.43416 8.14007C 2.61956 7.90567 2.85098 7.71169 3.11416 7.57008C 3.39216 7.41939 3.69271 7.31471 4.00416 7.26007C 4.30094 7.20369 4.6021 7.17357 4.90416 7.17007C 5.28299 7.17111 5.66104 7.20457 6.03416 7.27008L 7.12416 7.48008L 8.01416 7.69007C 8.1868 7.74205 8.36446 7.77557 8.54416 7.79008L 8.55416 8.65007Z"/>
<path id="path5_fill" d="M 14.75 2.65446C 15.0834 2.87062 15.35 3.17533 15.52 3.53446C 15.705 3.93178 15.82 4.35803 15.86 4.79446C 15.9091 5.28289 15.9325 5.77357 15.93 6.26446L 15.93 12.8545L 18.16 12.8545L 18.16 6.33446C 18.178 5.35695 18.0841 4.38059 17.88 3.42446C 17.7377 2.70107 17.4372 2.01809 17 1.42446C 16.6079 0.923369 16.0804 0.545112 15.48 0.334457C 14.7645 0.0977447 14.0135 -0.0138906 13.26 0.00445533C 13.0522 0.0109823 12.8451 0.0310261 12.64 0.0644567C 12.3253 0.114904 12.0169 0.19871 11.72 0.314457C 11.3696 0.444629 11.0344 0.612268 10.72 0.814457C 10.3977 1.02115 10.1163 1.28558 9.89 1.59446C 9.47838 1.07184 8.92708 0.676572 8.3 0.454456C 7.38049 0.123951 6.40654 -0.0287601 5.43 0.00445533C 5.19224 0.0082917 4.95502 0.0283396 4.72 0.0644567C 4.41546 0.111718 4.11701 0.192196 3.83 0.304455C 3.51154 0.428964 3.212 0.59725 2.94 0.804455C 2.64249 1.02677 2.39965 1.31407 2.23 1.64445L 2.23 0.484455L -1.52588e-07 0.484455L -1.52588e-07 12.8945L 2.25 12.8945L 2.25 6.01446C 2.24771 5.37555 2.36296 4.74167 2.59 4.14445C 2.7465 3.70813 3.00743 3.31674 3.35 3.00446C 3.65824 2.73492 4.02435 2.5399 4.42 2.43446C 4.80135 2.3303 5.19469 2.27651 5.59 2.27446C 6.08182 2.27687 6.56446 2.40787 6.99 2.65446C 7.30815 2.85424 7.57252 3.12891 7.76 3.45446C 7.93052 3.76468 8.04239 4.10367 8.09 4.45446C 8.1369 4.78572 8.16029 5.11989 8.16 5.45446L 8.16 12.8645L 10.39 12.8645L 10.39 5.44446C 10.3715 4.91696 10.467 4.39168 10.67 3.90446C 10.83 3.52026 11.0764 3.17808 11.39 2.90446C 11.682 2.6634 12.0234 2.48931 12.39 2.39445C 12.7152 2.30036 13.0515 2.24992 13.39 2.24446C 13.8709 2.26284 14.3391 2.40398 14.75 2.65446Z"/>
<path id="path6_fill" d="M 13.8826 2.771C 14.1999 2.40768 14.4443 1.9867 14.6026 1.53101C 14.7627 1.03969 14.8503 0.527624 14.8626 0.0110056L 12.6926 0.0110056C 12.6798 0.292583 12.6497 0.57311 12.6026 0.851006C 12.5751 1.0526 12.4997 1.24466 12.3826 1.41101C 12.2648 1.55921 12.1041 1.66746 11.9226 1.721C 11.6728 1.79472 11.4129 1.82848 11.1526 1.82101C 10.6003 1.82378 10.0519 1.72899 9.53256 1.541C 9.01256 1.35434 8.4759 1.14434 7.92256 0.911007C 7.33144 0.667434 6.72717 0.457104 6.11256 0.281006C 5.38949 0.0833474 4.64207 -0.0109244 3.89256 0.00100345C 3.37841 -0.00281674 2.86642 0.0679217 2.37256 0.211006C 1.92693 0.337737 1.5095 0.548148 1.14256 0.831005C 0.796154 1.09969 0.512839 1.44103 0.312562 1.83101C 0.0881694 2.29815 -0.0182685 2.81318 0.00256414 3.33101L 2.11256 3.33101C 2.09215 3.12702 2.13492 2.92169 2.23509 2.74282C 2.33525 2.56395 2.48797 2.42019 2.67256 2.33101C 3.04706 2.17893 3.44843 2.1041 3.85256 2.111C 4.25886 2.1112 4.66414 2.15139 5.06256 2.23101C 5.45666 2.30862 5.84441 2.41558 6.22256 2.55101L 6.22256 15.571L 8.33256 15.571L 8.33256 3.33101C 9.24327 3.67771 10.2081 3.86053 11.1826 3.87101C 11.7221 3.88153 12.2575 3.7758 12.7526 3.561C 13.1833 3.38494 13.5693 3.11506 13.8826 2.771Z"/>
<path id="path7_fill" d="M 4.21 7.77049L 4.53 7.77049C 4.94333 7.77049 5.4 7.77049 5.9 7.77049C 6.4 7.77049 6.84333 7.77049 7.23 7.77049C 8.03711 7.77725 8.84132 7.67294 9.62 7.46049C 10.3822 7.23235 11.047 6.75748 11.51 6.11049C 12.0018 5.50895 12.2735 4.75748 12.28 3.98049C 12.2977 3.27139 12.0988 2.57374 11.71 1.98049C 11.345 1.41909 10.8513 0.952849 10.27 0.620488C 9.48604 0.201696 8.60873 -0.0116077 7.72 0.000489123C 6.90279 -0.00730043 6.09052 0.128075 5.32 0.400487C 4.61378 0.692106 3.97417 1.12418 3.44 1.67049C 2.91133 2.1518 2.48311 2.73296 2.18 3.38049C 1.86161 4.06571 1.67826 4.80587 1.64 5.56049L 0.82 5.63049C 0.541921 5.64969 0.266871 5.70001 6.10352e-07 5.78049L 6.10352e-07 8.03049C 0.259267 7.93263 0.532996 7.87856 0.809998 7.87049C 1.08333 7.87049 1.35 7.85049 1.61 7.81049L 1.61 7.93049C 1.62949 8.70684 1.80284 9.47161 2.12 10.1805C 2.4041 10.8116 2.81612 11.3769 3.33 11.8405C 3.85262 12.2865 4.45726 12.6261 5.11 12.8405C 5.83106 13.0858 6.58838 13.2075 7.35 13.2005C 8.25635 13.2169 9.15699 13.0538 10 12.7205C 10.7057 12.4297 11.3765 12.0607 12 11.6205L 12 9.27049C 11.6533 9.50382 11.32 9.71716 11 9.91049C 10.6525 10.1087 10.2916 10.2824 9.92 10.4305C 9.53522 10.5843 9.13679 10.7015 8.73 10.7805C 8.27827 10.8645 7.81947 10.9047 7.36 10.9005C 6.48407 10.9308 5.62381 10.6628 4.92 10.1405C 4.58673 9.87845 4.32174 9.53973 4.14763 9.15318C 3.97351 8.76663 3.89541 8.34373 3.92 7.92049L 3.92 7.80049L 4.21 7.77049ZM 4.39 4.08049C 4.62254 3.68587 4.93609 3.34504 5.31 3.08049C 5.69302 2.81296 6.11925 2.61338 6.57 2.49049C 7.04854 2.35688 7.54316 2.28959 8.04 2.29049C 8.56679 2.28177 9.08691 2.40922 9.55 2.66049C 9.76986 2.78515 9.94964 2.96987 10.0683 3.19302C 10.187 3.41617 10.2396 3.66851 10.22 3.92049C 10.2309 4.2126 10.1467 4.50035 9.98 4.74049C 9.81878 4.95923 9.60573 5.13448 9.36 5.25049C 9.08229 5.38133 8.78502 5.46578 8.48 5.50049C 8.14825 5.54136 7.81426 5.5614 7.48 5.56049L 6.3 5.56049C 5.89333 5.56049 5.56 5.54049 5.3 5.50049L 3.96 5.50049C 3.99705 5.00127 4.14388 4.51639 4.39 4.08049Z"/>
<path id="path8_fill" d="M 10.8013 5.45008L 10.8013 5.33007C 10.8172 4.49657 10.6712 3.66791 10.3713 2.89007C 10.1195 2.2714 9.73169 1.71734 9.23659 1.26898C 8.74149 0.820618 8.15181 0.489465 7.51128 0.300075C 6.8434 0.097959 6.14906 -0.0031581 5.45128 7.54671e-05C 4.83126 -0.00119322 4.21451 0.0898037 3.62128 0.270076C 3.04429 0.443451 2.50258 0.717687 2.02128 1.08007C 1.54448 1.44403 1.14931 1.90393 0.861278 2.43008C 0.543898 3.01906 0.362776 3.67177 0.331275 4.34008L 2.57128 4.34008C 2.57431 3.98502 2.67837 3.63817 2.87128 3.34008C 3.052 3.06832 3.28691 2.83682 3.56128 2.66008C 3.84944 2.47398 4.16738 2.33869 4.50127 2.26007C 4.852 2.17823 5.21113 2.13796 5.57127 2.14007C 5.94381 2.13906 6.31447 2.19297 6.67128 2.30007C 7.03155 2.39652 7.37068 2.55931 7.67128 2.78007C 7.95557 2.99999 8.18778 3.27999 8.35128 3.60007C 8.53109 3.95981 8.62034 4.35801 8.61127 4.76007L 8.61127 5.08007C 8.62531 5.19632 8.62531 5.31383 8.61127 5.43008L 8.61127 5.57008C 7.95726 5.36375 7.28873 5.20665 6.61127 5.10007C 5.98576 5.00414 5.35409 4.95401 4.72127 4.95008C 4.09111 4.94338 3.46268 5.01731 2.85128 5.17007C 2.31199 5.30433 1.80526 5.5458 1.36128 5.88008C 0.930694 6.20865 0.587319 6.63787 0.361278 7.13008C 0.10884 7.70639 -0.0140509 8.33108 0.00127749 8.96007C -0.0136035 9.59237 0.130827 10.2182 0.421276 10.7801C 0.64886 11.2662 0.971941 11.7015 1.37128 12.0601C 1.8409 12.4105 2.36913 12.6747 2.93128 12.8401C 3.49214 13.0108 4.07501 13.0984 4.66128 13.1001C 5.37089 13.0991 6.07485 12.9738 6.74128 12.7301C 7.42221 12.481 8.02096 12.0484 8.47128 11.4801L 8.47128 12.7701L 10.7513 12.7701L 10.7513 12.3101C 10.7513 12.0234 10.7513 11.6434 10.7513 11.1701C 10.7513 10.6967 10.7513 10.1601 10.7513 9.56008L 10.7513 7.73007L 12.3713 7.48007L 12.3713 5.15008L 11.5613 5.32008L 10.8013 5.45008ZM 8.55128 8.65008C 8.51406 8.91344 8.40703 9.16205 8.24128 9.37007C 8.02706 9.66024 7.76698 9.91356 7.47127 10.1201C 7.13185 10.3638 6.76206 10.5621 6.37128 10.7101C 5.95309 10.87 5.50899 10.9513 5.06128 10.9501C 4.68607 10.9524 4.31241 10.9019 3.95128 10.8001C 3.62549 10.7111 3.31523 10.5729 3.03128 10.3901C 2.78281 10.2307 2.56863 10.0233 2.40128 9.78007C 2.24468 9.55386 2.16095 9.2852 2.16128 9.01007C 2.14941 8.69777 2.24468 8.39079 2.43128 8.14007C 2.61668 7.90567 2.84809 7.71169 3.11128 7.57008C 3.38927 7.41939 3.68983 7.31471 4.00128 7.26007C 4.29805 7.20369 4.59921 7.17357 4.90128 7.17007C 5.2801 7.17111 5.65816 7.20457 6.03128 7.27008L 7.12128 7.48007L 8.01128 7.69007C 8.18391 7.74205 8.36157 7.77557 8.54128 7.79008L 8.55128 8.65008Z"/>
<path id="path9_fill" d="M 16.99 1.42446C 16.5979 0.923369 16.0704 0.545113 15.47 0.334458C 14.7545 0.0977455 14.0035 -0.0138898 13.25 0.0044561C 13.0423 0.0109831 12.8351 0.0310268 12.63 0.0644575C 12.3153 0.114905 12.0069 0.198711 11.71 0.314457C 11.3596 0.44463 11.0244 0.612269 10.71 0.814457C 10.3877 1.02115 10.1063 1.28558 9.88 1.59446C 9.46837 1.07184 8.91708 0.676573 8.29 0.454457C 7.37049 0.123952 6.39654 -0.0287594 5.42 0.0044561C 5.18224 0.00829246 4.94503 0.0283403 4.71 0.0644575C 4.40546 0.111719 4.10701 0.192197 3.82 0.304455C 3.50155 0.428965 3.202 0.597251 2.93 0.804455C 2.63249 1.02677 2.38966 1.31407 2.22 1.64446L 2.22 0.444455L 1.2207e-06 0.444455L 1.2207e-06 12.8545L 2.25 12.8545L 2.25 5.97446C 2.22849 5.33926 2.32339 4.70549 2.53 4.10445C 2.6865 3.66813 2.94743 3.27674 3.29 2.96446C 3.59824 2.69492 3.96435 2.4999 4.36 2.39446C 4.74781 2.28856 5.14799 2.23475 5.55 2.23446C 6.04182 2.23687 6.52445 2.36787 6.95 2.61446C 7.26815 2.81424 7.53252 3.08891 7.72 3.41446C 7.89053 3.72468 8.00239 4.06367 8.05 4.41446C 8.0969 4.74572 8.12029 5.07989 8.12 5.41446L 8.12 12.8245L 10.35 12.8245L 10.35 5.40446C 10.3315 4.87696 10.427 4.35168 10.63 3.86446C 10.79 3.48026 11.0364 3.13808 11.35 2.86446C 11.642 2.6234 11.9834 2.44931 12.35 2.35445C 12.6752 2.26036 13.0115 2.20992 13.35 2.20446C 13.8529 2.20462 14.3466 2.33927 14.78 2.59446C 15.1134 2.81062 15.38 3.11533 15.55 3.47446C 15.7304 3.86928 15.842 4.29203 15.88 4.72446C 15.9291 5.21289 15.9525 5.70357 15.95 6.19445L 15.95 12.7845L 18.18 12.7845L 18.18 6.29446C 18.198 5.31695 18.1041 4.34059 17.9 3.38446C 17.7432 2.6726 17.4326 2.00365 16.99 1.42446Z"/>
</defs>
</svg>
