<svg width="22" height="30" viewBox="0 0 22 30" version="1.1" xmlns="http://www.w3.org/2000/svg" xmlns:xlink="http://www.w3.org/1999/xlink">
<title>icon_full-image</title>
<desc>Created using Figma</desc>
<g id="Canvas" transform="translate(-1809 -1879)">
<g id="icon_full-image">
<g id="Group">
<g id="Vector">
<use xlink:href="#path0_fill" transform="translate(1809.39 1879)" fill="#BDBDBD"/>
</g>
</g>
</g>
</g>
<defs>
<path id="path0_fill" d="M 20.8814 29.4182C 20.8785 29.3865 21.3991 30.2839 20.4785 26.1713C 18.9638 19.4045 16.1073 15.2345 14.6313 12.8994L 14.6313 10.8392L 16.3228 3.49935C 16.34 3.4248 16.3404 3.34832 16.3257 3.27484L 15.7578 0.428973C 15.708 0.17951 15.4893 0 15.2352 0L 13.5301 0C 13.2358 0 12.9972 0.238881 12.9972 0.533605L 12.9972 3.26033C 12.2135 3.59679 11.3939 4.17233 10.711 5.14489C 10.7059 5.15221 10.6881 5.15228 10.6881 5.15228C 10.6881 5.15228 10.6702 5.15221 10.6651 5.14489C 9.98229 4.17233 9.16278 3.59686 8.37904 3.2604L 8.37904 0.533605C 8.37904 0.238947 8.14048 0 7.84615 0L 6.14108 0C 5.8871 0 5.66841 0.17951 5.61856 0.428907L 5.05011 3.27471C 5.03542 3.34819 5.03615 3.42473 5.05337 3.49928L 6.74489 10.8392L 6.74495 12.8994C 5.26893 15.2344 2.12584 21.6145 0.897698 26.1712C 0.897698 26.1712 0.0867346 28.1397 0.0867346 29.4182C 0.0867346 29.4182 -0.321098 29.3631 0.631948 29.8263C 0.732915 29.937 0.875692 30 1.02545 30L 20.3508 30C 20.5005 30 20.6433 29.937 20.7443 29.8263C 20.8452 29.7156 20.895 29.5675 20.8814 29.4182ZM 14.0629 1.06714L 14.7984 1.06714L 15.1463 2.80939C 14.8464 2.81385 14.4743 2.84314 14.0629 2.92747L 14.0629 1.06714ZM 6.57785 1.06714L 7.31327 1.06714L 7.31327 2.92754C 6.90189 2.84314 6.52972 2.81385 6.22988 2.80946L 6.57785 1.06714ZM 6.23433 3.878C 7.0781 3.8969 8.6737 4.16427 9.79325 5.7587C 9.99578 6.04716 10.3303 6.21942 10.6881 6.21942C 11.0458 6.21942 11.3802 6.04716 11.5828 5.7587C 12.71 4.15336 14.2999 3.89018 15.1426 3.87501L 13.6745 10.2448L 7.70165 10.2448L 6.23433 3.878ZM 13.5657 11.312L 13.5657 12.5214L 7.81073 12.5214L 7.81073 11.312L 13.5657 11.312ZM 1.61929 28.9329C 1.91428 26.4178 3.32529 20.3909 7.57157 13.5886L 8.36176 13.5886L 7.31938 20.373C 7.27465 20.6642 7.47412 20.9367 7.76499 20.9815C 7.79251 20.9857 7.81977 20.9878 7.84669 20.9878C 8.10525 20.9878 8.33218 20.799 8.37266 20.5353L 9.44003 13.5886L 10.1552 13.5886L 10.1552 24.4382C 10.1552 24.7328 10.3937 24.9718 10.6881 24.9718C 10.9823 24.9718 11.2209 24.7329 11.2209 24.4382L 11.2209 13.5886L 11.9361 13.5886L 13.0033 20.5353C 13.0438 20.7991 13.2708 20.9878 13.5293 20.9878C 13.5562 20.9878 13.5835 20.9857 13.611 20.9815C 13.9019 20.9367 14.1014 20.6643 14.0566 20.373L 13.0143 13.5886L 13.8046 13.5886C 18.0482 20.3869 19.4612 26.417 19.7568 28.9329L 1.61929 28.9329Z"/>
</defs>
</svg>
