<svg width="33" height="30" viewBox="0 0 33 30" version="1.1" xmlns="http://www.w3.org/2000/svg" xmlns:xlink="http://www.w3.org/1999/xlink">
<title>icon_management</title>
<desc>Created using Figma</desc>
<g id="Canvas" transform="translate(-419 -4714)">
<g id="icon_management">
<g id="Vector">
<use xlink:href="#path0_fill" transform="translate(419 4714)" fill="#BDBDBD"/>
</g>
</g>
</g>
<defs>
<path id="path0_fill" d="M 30.0076 23.394L 24.7969 20.7889C 24.3055 20.5429 24 20.0487 24 19.4989L 24 17.6547C 24.1249 17.502 24.2564 17.328 24.3922 17.136C 25.068 16.1815 25.6096 15.1189 26.0035 13.9729C 26.7731 13.62 27.2727 12.8591 27.2727 12L 27.2727 9.81818C 27.2727 9.29291 27.0764 8.784 26.7273 8.38636L 26.7273 5.48509C 26.7578 5.18509 26.8778 3.39927 25.5862 1.926C 24.4658 0.648 22.6478 0 20.1818 0C 17.7158 0 15.8978 0.648 14.7775 1.92545C 13.9947 2.81836 13.7313 3.82418 13.6516 4.54636C 12.7167 4.06309 11.6149 3.81818 10.3636 3.81818C 4.69691 3.81818 4.36691 8.64818 4.36364 8.72727L 4.36364 11.2249C 4.01018 11.61 3.81818 12.0545 3.81818 12.4958L 3.81818 14.3798C 3.81818 14.9684 4.08164 15.5171 4.53327 15.888C 4.98327 17.5844 6.09 18.8662 6.52091 19.3162L 6.52091 20.8124C 6.52091 21.2416 6.28745 21.6355 5.88218 21.8569L 2.25327 24.1331C 0.863454 24.8913 0 26.346 0 27.9289L 0 30L 7.63636 30L 8.72727 30L 32.7273 30L 32.7273 27.7947C 32.7273 25.9195 31.6849 24.2329 30.0076 23.394ZM 7.63636 27.6884L 7.63636 28.9091L 1.09091 28.9091L 1.09091 27.9289C 1.09091 26.7453 1.73673 25.6576 2.80418 25.0745L 6.43255 22.7984C 7.15964 22.4018 7.61127 21.6415 7.61127 20.8124L 7.61127 18.8536L 7.43782 18.6916C 7.42364 18.6785 5.97436 17.3095 5.54618 15.4435L 5.49655 15.2275L 5.31 15.1075C 5.05909 14.9449 4.90909 14.6727 4.90909 14.3798L 4.90909 12.4958C 4.90909 12.2995 5.04273 12.066 5.27509 11.8555L 5.45455 11.6935L 5.45345 8.75891C 5.46327 8.60236 5.74745 4.90909 10.3636 4.90909C 11.6689 4.90909 12.768 5.21073 13.6364 5.80582L 13.6364 8.38636C 13.2873 8.784 13.0909 9.29291 13.0909 9.81818L 13.0909 12C 13.0909 12.1658 13.11 12.3289 13.146 12.4871C 13.1607 12.5504 13.1902 12.6082 13.2104 12.6693C 13.2404 12.7609 13.2644 12.8553 13.3064 12.942C 13.3069 12.9431 13.3075 12.9436 13.308 12.9447C 13.4476 13.2327 13.6511 13.4902 13.9075 13.6958C 13.9102 13.7062 13.9135 13.7155 13.9162 13.7253C 13.9489 13.8502 13.9833 13.9745 14.0204 14.0962L 14.0645 14.2385C 14.0722 14.2636 14.0815 14.2893 14.0896 14.3144C 14.1087 14.3733 14.1273 14.4316 14.1469 14.4895C 14.1796 14.5849 14.214 14.6836 14.2538 14.7911C 14.2707 14.8358 14.2893 14.8762 14.3067 14.9204C 14.3515 15.0344 14.3962 15.1445 14.4431 15.2536C 14.4545 15.2798 14.4644 15.3082 14.4758 15.3338L 14.5064 15.4025C 14.5205 15.4342 14.5353 15.4625 14.5495 15.4936C 14.6029 15.6104 14.6553 15.7233 14.7098 15.8324C 14.7185 15.8498 14.7267 15.8689 14.7355 15.8864C 14.7698 15.9545 14.8042 16.0189 14.8385 16.0844C 14.8975 16.1967 14.9553 16.3025 15.0131 16.4051C 15.0415 16.4553 15.0693 16.5044 15.0971 16.5518C 15.1756 16.686 15.2504 16.8093 15.3229 16.9238C 15.3387 16.9484 15.354 16.974 15.3693 16.9975C 15.5013 17.202 15.6158 17.3678 15.7107 17.4971C 15.7358 17.5315 15.7576 17.5609 15.7789 17.5898C 15.7909 17.6056 15.8073 17.6285 15.8176 17.6427L 15.8176 19.4476C 15.8176 19.9756 15.5296 20.46 15.0665 20.7131L 13.6233 21.5002L 13.3718 21.4778L 13.2693 21.6933L 10.2005 23.3673C 8.61873 24.2313 7.63636 25.8862 7.63636 27.6884ZM 31.6364 28.9091L 8.72727 28.9091L 8.72727 27.6884C 8.72727 26.286 9.492 24.9971 10.7231 24.3262L 15.5891 21.672C 16.4035 21.2275 16.9091 20.3749 16.9091 19.4482L 16.9091 17.2565L 16.9091 17.256L 16.8033 17.1295L 16.7825 17.1049C 16.7815 17.1033 16.7476 17.0624 16.6925 16.9904C 16.6893 16.986 16.686 16.9816 16.6822 16.9773C 16.6533 16.9396 16.6195 16.8944 16.5807 16.8404C 16.5802 16.8393 16.5796 16.8387 16.5791 16.8376C 16.4978 16.7247 16.3958 16.578 16.2824 16.4013C 16.2796 16.3975 16.2775 16.3931 16.2747 16.3893C 16.2213 16.3058 16.1645 16.2147 16.1067 16.1182C 16.1024 16.1111 16.098 16.104 16.0936 16.0964C 15.9704 15.8896 15.8395 15.6556 15.7091 15.3965C 15.7091 15.3965 15.7085 15.396 15.7085 15.3955C 15.6393 15.2564 15.57 15.1102 15.5024 14.958C 15.4931 14.9367 15.4833 14.916 15.474 14.8947C 15.444 14.8265 15.414 14.7551 15.3835 14.6815C 15.3725 14.6547 15.3616 14.6269 15.3507 14.5996C 15.3224 14.5282 15.2935 14.4562 15.2629 14.3738C 15.2073 14.2255 15.1549 14.0705 15.1047 13.9107L 15.0747 13.8136C 15.0715 13.8027 15.0676 13.7918 15.0644 13.7804C 15.0131 13.608 14.964 13.4318 14.9225 13.2507L 14.8729 13.0347L 14.6869 12.9147C 14.3705 12.7107 14.1818 12.3687 14.1818 12L 14.1818 9.81818C 14.1818 9.51218 14.3116 9.22691 14.5473 9.01364L 14.7273 8.85164L 14.7273 5.45455L 14.7273 5.26145L 14.7125 5.25C 14.694 4.85618 14.7175 3.64909 15.5978 2.64491C 16.5016 1.61345 18.0442 1.09091 20.1818 1.09091C 22.3118 1.09091 23.8511 1.60964 24.756 2.63345C 25.818 3.834 25.6424 5.37 25.6413 5.38309L 25.6364 8.85164L 25.8164 9.01418C 26.052 9.22691 26.1818 9.51218 26.1818 9.81818L 26.1818 12C 26.1818 12.4762 25.8698 12.8929 25.4062 13.0358L 25.1345 13.1193L 25.0473 13.3893C 24.6824 14.5244 24.1625 15.5727 23.5015 16.5055C 23.3395 16.7351 23.1818 16.9385 23.0449 17.094L 22.9091 17.2489L 22.9091 19.4989C 22.9091 20.4644 23.4453 21.3322 24.3087 21.7642L 29.5195 24.3693C 30.8253 25.0222 31.6364 26.3345 31.6364 27.7947L 31.6364 28.9091Z"/>
</defs>
</svg>
