<svg width="31" height="30" viewBox="0 0 31 30" version="1.1" xmlns="http://www.w3.org/2000/svg" xmlns:xlink="http://www.w3.org/1999/xlink">
<title>icon_visage</title>
<desc>Created using Figma</desc>
<g id="Canvas" transform="translate(-230 -4711)">
<g id="icon_visage">
<g id="Vector">
<use xlink:href="#path0_fill" transform="translate(230.183 4712.39)" fill="#BDBDBD"/>
</g>
<g id="Vector">
<use xlink:href="#path1_fill" transform="translate(239.513 4733.96)" fill="#BDBDBD"/>
</g>
<g id="Group">
<g id="Vector">
<use xlink:href="#path2_fill" transform="translate(237.808 4711)" fill="#BDBDBD"/>
</g>
<g id="Vector">
<use xlink:href="#path3_fill" transform="translate(238.09 4713.39)" fill="#BDBDBD"/>
</g>
<g id="Vector">
<use xlink:href="#path4_fill" transform="translate(242.435 4719.15)" fill="#BDBDBD"/>
</g>
<g id="Vector">
<use xlink:href="#path5_fill" transform="translate(245.754 4722)" fill="#BDBDBD"/>
</g>
</g>
</g>
</g>
<defs>
<path id="path0_fill" d="M 8.3959 11.8747L 8.05171 11.8747L 8.05171 9.11864C 8.05171 9.04017 8.03613 8.96247 8.00586 8.88997C 7.97559 8.81747 7.93122 8.75159 7.87528 8.69611C 7.81935 8.64062 7.75295 8.5966 7.67987 8.56657C 7.60679 8.53654 7.52847 8.52109 7.44937 8.52109L 7.44937 2.85041C 7.4476 2.74127 7.41573 2.63469 7.35722 2.54224C 7.29871 2.4498 7.21579 2.37502 7.11746 2.32602L 2.45854 0.0577539C 2.36791 0.0150687 2.26798 -0.0044863 2.16781 0.000864278C 2.06763 0.00621486 1.97039 0.0363014 1.88491 0.0883927C 1.79943 0.140484 1.72842 0.212931 1.67833 0.299155C 1.62823 0.385379 1.60064 0.482651 1.59805 0.582139L 1.59805 8.52109C 1.4383 8.52109 1.28509 8.58404 1.17213 8.69611C 1.05917 8.80817 0.995707 8.96016 0.995707 9.11864L 0.995707 11.8747L 0.602341 11.8747C 0.44259 11.8747 0.289383 11.9377 0.176422 12.0497C 0.0634608 12.1618 -8.20625e-08 12.3138 -8.20625e-08 12.4723L -8.20625e-08 28.0087C -8.20625e-08 28.0872 0.0155801 28.1649 0.0458506 28.2374C 0.0761211 28.3099 0.120489 28.3757 0.176422 28.4312C 0.232354 28.4867 0.298756 28.5307 0.371835 28.5608C 0.444915 28.5908 0.523241 28.6063 0.602341 28.6063L 8.3959 28.6063C 8.55565 28.6063 8.70886 28.5433 8.82182 28.4312C 8.93478 28.3192 8.99824 28.1672 8.99824 28.0087L 8.99824 12.4723C 8.99824 12.3138 8.93478 12.1618 8.82182 12.0497C 8.70886 11.9377 8.55565 11.8747 8.3959 11.8747ZM 2.79044 1.54554L 6.2078 3.25284L 6.2078 8.53328L 2.79044 8.53328L 2.79044 1.54554ZM 2.13893 9.704L 6.85932 9.704L 6.85932 11.8747L 2.13893 11.8747L 2.13893 9.704ZM 7.79356 27.4233L 1.19239 27.4233L 1.19239 13.0576L 7.79356 13.0576L 7.79356 27.4233Z"/>
<path id="path1_fill" d="M 20.0002 4.65202e-07L 0.614634 4.65202e-07C 0.451623 4.65202e-07 0.295289 0.0642414 0.180023 0.178592C 0.0647564 0.292942 -1.87571e-07 0.448035 -1.87571e-07 0.609751C -1.87571e-07 0.771466 0.0647564 0.926559 0.180023 1.04091C 0.295289 1.15526 0.451623 1.2195 0.614634 1.2195L 19.0537 1.2195L 18.9184 1.49999C 18.5474 2.26163 17.968 2.90447 17.2464 3.35513C 16.5248 3.8058 15.69 4.04614 14.8373 4.04874L 0.614634 4.04874C 0.451623 4.04874 0.295289 4.11298 0.180023 4.22733C 0.0647564 4.34168 -1.87571e-07 4.49678 -1.87571e-07 4.65849C -1.87571e-07 4.82021 0.0647564 4.9753 0.180023 5.08965C 0.295289 5.204 0.451623 5.26824 0.614634 5.26824L 14.825 5.26824C 15.9071 5.26218 16.9656 4.95344 17.8789 4.37748C 18.7921 3.80152 19.5231 2.9817 19.9879 2.01218L 20.5411 0.87804C 20.5845 0.787212 20.6041 0.686983 20.5981 0.58663C 20.5922 0.486277 20.5607 0.389045 20.5068 0.303934C 20.4529 0.218822 20.3782 0.148585 20.2896 0.0997213C 20.2011 0.0508574 20.1015 0.0249481 20.0002 0.024391L 20.0002 4.65202e-07Z"/>
<path id="path2_fill" d="M 0.943231 4.27923C 2.12063 3.20464 3.50259 2.37425 5.00796 1.83682C 6.51333 1.29939 8.11176 1.06576 9.7094 1.14965C 11.307 1.23354 12.8717 1.63325 14.3115 2.32532C 15.7512 3.01739 17.0371 3.98786 18.0936 5.17975C 19.1501 6.37165 19.9559 7.76093 20.4636 9.26603C 20.9714 10.7711 21.1709 12.3617 21.0505 13.9444C 20.9301 15.527 20.4921 17.0699 19.7623 18.4823C 19.0325 19.8947 18.0257 21.1483 16.8008 22.1693C 16.6991 22.2752 16.6401 22.4143 16.6349 22.5605C 16.6298 22.7066 16.6787 22.8495 16.7727 22.9622C 16.8666 23.0749 16.9989 23.1495 17.1445 23.172C 17.2901 23.1944 17.439 23.1631 17.5629 23.0839C 18.8997 21.9586 19.9972 20.5804 20.7912 19.0298C 21.5853 17.4792 22.0602 15.7872 22.188 14.0526C 22.3159 12.318 22.0942 10.5754 21.5359 8.92673C 20.9776 7.27801 20.0939 5.75611 18.9364 4.44985C 17.7788 3.14359 16.3706 2.07913 14.794 1.31859C 13.2173 0.558045 11.5037 0.116652 9.75321 0.020169C 8.00272 -0.0763143 6.2504 0.174045 4.59849 0.756635C 2.94659 1.33923 1.42819 2.24238 0.131915 3.41339C 0.0417143 3.52529 -0.00495383 3.66562 0.000416461 3.8088C 0.00578675 3.95198 0.0628376 4.08848 0.161171 4.19343C 0.259504 4.29837 0.392574 4.36477 0.536126 4.38052C 0.679679 4.39627 0.824158 4.36032 0.943231 4.27923Z"/>
<path id="path3_fill" d="M 8.81049 1.18489C 10.3558 1.18587 11.8776 1.55975 13.2448 2.27428C 14.612 2.9888 15.7834 4.02254 16.6581 5.28633C 17.5328 6.55011 18.0845 8.00601 18.2656 9.52847C 18.4467 11.0509 18.2518 12.5942 17.6976 14.0253C 17.1434 15.4563 16.2467 16.7322 15.0847 17.7428C 13.9227 18.7534 12.5304 19.4684 11.0278 19.8262C 9.52516 20.1839 7.95736 20.1737 6.45961 19.7964C 4.96185 19.4191 3.57909 18.686 2.43059 17.6603C 2.37539 17.5945 2.30656 17.5411 2.22876 17.5039C 2.15096 17.4668 2.06601 17.4466 1.97968 17.4449C 1.89334 17.4431 1.80764 17.4598 1.72837 17.4938C 1.64911 17.5278 1.57813 17.5783 1.52027 17.6419C 1.4624 17.7055 1.419 17.7807 1.39299 17.8624C 1.36698 17.944 1.35899 18.0303 1.36954 18.1153C 1.3801 18.2004 1.40896 18.2822 1.45417 18.3551C 1.49937 18.4281 1.55987 18.4906 1.63156 18.5384C 3.24081 19.9752 5.25089 20.8948 7.39721 21.1763C 9.54352 21.4579 11.7255 21.088 13.6558 20.1155C 15.5861 19.143 17.1744 17.6134 18.2115 15.7281C 19.2486 13.8428 19.6859 11.6901 19.4659 9.55344C 19.2459 7.41677 18.3789 5.39627 16.979 3.7579C 15.5791 2.11954 13.7119 0.940105 11.6232 0.374865C 9.53455 -0.190375 7.3223 -0.114928 5.27768 0.591275C 3.23307 1.29748 1.45193 2.60133 0.168735 4.3312C 0.109331 4.39232 0.0637369 4.4653 0.0349917 4.54527C 0.00624658 4.62524 -0.0049901 4.71037 0.00202956 4.79499C 0.00904921 4.8796 0.0341642 4.96176 0.0757018 5.036C 0.117239 5.11023 0.174246 5.17483 0.242923 5.22549C 0.3116 5.27615 0.39037 5.31171 0.473987 5.3298C 0.557605 5.3479 0.644148 5.3481 0.727852 5.33041C 0.811557 5.31272 0.8905 5.27754 0.959422 5.2272C 1.02835 5.17687 1.08567 5.11255 1.12756 5.03851C 2.01609 3.84581 3.17376 2.87606 4.50788 2.20688C 5.84201 1.53771 7.31554 1.1877 8.81049 1.18489L 8.81049 1.18489Z"/>
<path id="path4_fill" d="M 11.0302 0.203676L 0.138888 11.0206C 0.0430028 11.1352 -0.00629727 11.2812 0.000645636 11.43C 0.00758855 11.5787 0.0702746 11.7196 0.176422 11.8249C 0.28257 11.9302 0.424528 11.9924 0.574483 11.9992C 0.724438 12.0061 0.871582 11.9572 0.987084 11.8621L 11.8784 1.05733C 11.9429 1.00423 11.9955 0.938371 12.0328 0.863963C 12.0702 0.789554 12.0915 0.708231 12.0954 0.625193C 12.0992 0.542154 12.0856 0.459228 12.0553 0.381713C 12.0251 0.304198 11.9788 0.2338 11.9196 0.17502C 11.8603 0.11624 11.7894 0.0703712 11.7112 0.0403447C 11.6331 0.0103183 11.5495 -0.00320497 11.4658 0.000639703C 11.3821 0.00448438 11.3001 0.0256116 11.2251 0.0626721C 11.1501 0.0997326 11.0837 0.151911 11.0302 0.21587L 11.0302 0.203676Z"/>
<path id="path5_fill" d="M 0.138889 8.24746C 0.0430037 8.36205 -0.00629751 8.50802 0.000645402 8.65678C 0.00758831 8.80555 0.0702744 8.94638 0.176422 9.05168C 0.28257 9.15699 0.424529 9.21917 0.574484 9.22606C 0.724439 9.23295 0.871583 9.18404 0.987085 9.08892L 9.16172 0.97924C 9.2576 0.864656 9.3069 0.718682 9.29996 0.569919C 9.29302 0.421155 9.23033 0.280324 9.12418 0.17502C 9.01803 0.0697157 8.87608 0.00752774 8.72612 0.000639994C 8.57617 -0.00624775 8.42902 0.0426617 8.31352 0.137785L 0.138889 8.24746Z"/>
</defs>
</svg>
