<svg width="30" height="31" viewBox="0 0 30 31" version="1.1" xmlns="http://www.w3.org/2000/svg" xmlns:xlink="http://www.w3.org/1999/xlink">
<title>icon_lacquer</title>
<desc>Created using Figma</desc>
<g id="Canvas" transform="translate(7 -4710)">
<g id="icon_lacquer">
<g id="Vector">
<use xlink:href="#path0_fill" transform="translate(-7 4710)" fill="#BDBDBD"/>
</g>
<g id="Vector">
<use xlink:href="#path1_fill" transform="translate(1.10425 4726.87)" fill="#BDBDBD"/>
</g>
</g>
</g>
<defs>
<path id="path0_fill" d="M 29.0387 25.9808L 25.2882 23.0427L 19.8928 14.8886L 21.7023 13.6892C 21.7785 13.6425 21.8442 13.5804 21.8954 13.507C 21.9465 13.4336 21.982 13.3503 21.9995 13.2624C 22.017 13.1746 22.0162 13.084 21.9971 12.9965C 21.9781 12.909 21.9411 12.8263 21.8887 12.7538L 14.6839 1.8487C 14.409 1.43284 13.9808 1.14358 13.4934 1.04453C 13.006 0.945471 12.4993 1.04474 12.0848 1.3205L 10.6263 2.28886L 10.6263 1.87071C 10.6234 1.37355 10.4246 0.897757 10.0732 0.547244C 9.72186 0.196731 9.24654 -8.6268e-06 8.75109 -1.25657e-07L 5.00062 -1.25657e-07C 4.50518 -8.6268e-06 4.02986 0.196731 3.6785 0.547244C 3.32714 0.897757 3.12829 1.37355 3.12539 1.87071L 3.12539 14.5475C 2.22575 14.8185 1.43655 15.372 0.873925 16.1268C 0.311299 16.8815 0.004964 17.7976 1.56874e-08 18.7401L 1.56874e-08 28.1046C 0.00287791 28.5999 0.200215 29.074 0.549212 29.4242C 0.898208 29.7744 1.37072 29.9724 1.86427 29.9753L 11.8655 29.9753C 12.3591 29.9724 12.8316 29.7744 13.1806 29.4242C 13.5296 29.074 13.7269 28.5999 13.7298 28.1046L 13.7298 18.7401C 13.7248 17.7976 13.4185 16.8815 12.8559 16.1268C 12.2932 15.372 11.504 14.8185 10.6044 14.5475L 10.6044 9.29851L 15.6599 16.9244L 15.7476 17.0234C 15.8471 17.127 15.9801 17.1917 16.1228 17.2058C 16.2654 17.2199 16.4085 17.1826 16.5262 17.1005L 18.8401 15.5709L 24.2465 23.725L 25.4856 28.3247C 25.5743 28.6704 25.7454 28.9893 25.9842 29.2538C 26.223 29.5184 26.5223 29.7207 26.8564 29.8433C 27.1118 29.9429 27.383 29.9951 27.657 29.9973C 28.1378 30.0303 28.6161 29.9035 29.0179 29.6365C 29.4197 29.3694 29.7227 28.9769 29.8799 28.5198C 30.0372 28.0626 30.04 27.5662 29.888 27.1073C 29.7359 26.6484 29.4375 26.2525 29.0387 25.9808ZM 4.37555 1.87071C 4.37555 1.70435 4.4414 1.54481 4.55863 1.42718C 4.67585 1.30955 4.83484 1.24347 5.00062 1.24347L 8.75109 1.24347C 8.91687 1.24347 9.07587 1.30955 9.19309 1.42718C 9.31032 1.54481 9.37617 1.70435 9.37617 1.87071L 9.37617 3.11418L 8.95945 3.38928C 8.75462 3.52483 8.57847 3.69962 8.44111 3.90362C 8.30374 4.10763 8.20785 4.33684 8.15895 4.57811C 8.11005 4.81938 8.10909 5.06796 8.15613 5.3096C 8.20317 5.55124 8.29728 5.78119 8.43307 5.98626L 9.38714 7.4168C 9.38594 7.43879 9.38594 7.46083 9.38714 7.48282L 9.38714 14.3604L 4.37555 14.3604L 4.37555 1.87071ZM 12.4906 18.7401L 12.4906 28.1046C 12.4906 28.271 12.4247 28.4305 12.3075 28.5481C 12.1903 28.6658 12.0313 28.7318 11.8655 28.7318L 1.87523 28.7318C 1.70945 28.7318 1.55046 28.6658 1.43324 28.5481C 1.31601 28.4305 1.25016 28.271 1.25016 28.1046L 1.25016 18.7401C 1.25016 17.9112 1.57828 17.1163 2.16235 16.5302C 2.74642 15.9442 3.53858 15.6149 4.36458 15.6149L 9.38714 15.6149C 10.2112 15.6178 11.0006 15.9483 11.5823 16.5341C 12.164 17.1199 12.4906 17.9131 12.4906 18.7401ZM 16.3617 15.7139L 9.47487 5.293C 9.38327 5.15437 9.35029 4.9849 9.38319 4.82187C 9.4161 4.65885 9.51219 4.51561 9.65033 4.42367L 12.7757 2.35489C 12.9139 2.26297 13.0828 2.22988 13.2452 2.2629C 13.4077 2.29592 13.5504 2.39234 13.6421 2.53096L 20.5398 12.9519L 16.3617 15.7139ZM 28.6549 27.8185C 28.6487 27.977 28.6046 28.1318 28.5264 28.2697C 28.4481 28.4075 28.338 28.5245 28.2053 28.6108C 28.0731 28.6868 27.9253 28.7313 27.7732 28.7411C 27.6211 28.7509 27.4689 28.7256 27.3281 28.6671C 27.1873 28.6087 27.0617 28.5187 26.9609 28.404C 26.8602 28.2894 26.7869 28.1531 26.7468 28.0056L 25.9682 25.1115L 28.3259 26.9602C 28.451 27.0569 28.5512 27.1823 28.618 27.3259C 28.6848 27.4695 28.7162 27.6271 28.7097 27.7855L 28.6549 27.8185Z"/>
<path id="path1_fill" d="M 1.948e-15 0.605228C 1.948e-15 0.771582 0.0658564 0.931123 0.183081 1.04875C 0.300306 1.16638 0.459297 1.23246 0.625078 1.23246C 0.95664 1.23246 1.27462 1.36463 1.50907 1.59989C 1.74352 1.83515 1.87523 2.15423 1.87523 2.48694L 1.87523 9.99177C 1.87523 10.1581 1.94109 10.3177 2.05832 10.4353C 2.17554 10.5529 2.33453 10.619 2.50031 10.619C 2.66609 10.619 2.82508 10.5529 2.94231 10.4353C 3.05953 10.3177 3.12539 10.1581 3.12539 9.99177L 3.12539 2.49794C 3.12249 1.83444 2.85779 1.1991 2.3892 0.73096C 1.92061 0.262818 1.28631 -5.4233e-06 0.625078 9.58618e-07C 0.463028 -9.91694e-05 0.307273 0.0629546 0.190658 0.175866C 0.074044 0.288777 0.00568594 0.442719 1.948e-15 0.605228Z"/>
</defs>
</svg>
