<svg width="26" height="30" viewBox="0 0 26 30" version="1.1" xmlns="http://www.w3.org/2000/svg" xmlns:xlink="http://www.w3.org/1999/xlink">
<title>icon_scissors</title>
<desc>Created using Figma</desc>
<g id="Canvas" transform="translate(254 -4710)">
<g id="icon_scissors">
<use xlink:href="#path0_fill" transform="translate(-254 4710)" fill="#BDBDBD"/>
</g>
</g>
<defs>
<path id="path0_fill" d="M 11.4047 29.3118C 11.0302 29.0555 10.7688 28.666 10.6744 28.2237C 10.58 27.7814 10.6598 27.32 10.8973 26.9345C 11.3469 27.0141 11.8085 26.996 12.2504 26.8812C 12.6922 26.7665 13.1038 26.5579 13.4569 26.2698C 13.8099 25.9817 14.096 25.621 14.2955 25.2125C 14.495 24.8039 14.6031 24.3572 14.6123 23.9031C 14.6216 23.4491 14.5318 22.9984 14.3492 22.5821C 14.1666 22.1658 13.8955 21.7938 13.5545 21.4917C 13.2135 21.1896 12.8107 20.9646 12.3739 20.8321C 11.9371 20.6996 11.4766 20.6628 11.0241 20.7243L 11.4339 15.8726C 11.7162 15.7944 12.0029 15.7328 12.2925 15.6882C 12.8226 15.5604 13.3799 15.6046 13.8829 15.8143C 13.9357 15.8415 13.9942 15.8558 14.0537 15.8558C 14.1131 15.8558 14.1717 15.8415 14.2244 15.8143C 15.405 15.3292 24.8106 9.99227 25.2107 9.72057C 25.2999 9.67554 25.3676 9.59707 25.3987 9.50245C 25.4298 9.40782 25.4218 9.30478 25.3765 9.21599C 25.3313 9.12721 25.2524 9.05995 25.1572 9.02901C 25.0621 8.99808 24.9585 9.006 24.8692 9.05103L 11.4925 14.9701L 12.3999 0.414974C 12.4115 0.31718 12.3836 0.218792 12.3223 0.141453C 12.261 0.0641134 12.1713 0.0141586 12.073 0.0025778C 11.9747 -0.009003 11.8757 0.0187388 11.798 0.0797003C 11.7202 0.140662 11.67 0.229849 11.6583 0.327643C 11.5803 0.783705 9.79477 11.4284 9.70696 12.6995C 9.70424 12.7592 9.71614 12.8186 9.74163 12.8727C 9.76712 12.9268 9.80545 12.9739 9.85331 13.01C 10.2277 13.4078 10.4637 13.9146 10.5265 14.4558C 10.5858 14.741 10.6281 15.0294 10.6534 15.3195L 6.26277 17.4348C 6.08361 16.6527 5.61151 15.9679 4.94256 15.5197C 4.27361 15.0716 3.45808 14.8938 2.66198 15.0226C 1.86588 15.1514 1.14903 15.577 0.657342 16.2128C 0.165656 16.8487 -0.0639132 17.647 0.0153616 18.4453C 0.0946364 19.2435 0.476796 19.9818 1.08406 20.5097C 1.69132 21.0376 2.47804 21.3155 3.28409 21.2869C 4.09014 21.2583 4.85493 20.9253 5.42281 20.3557C 5.99069 19.7861 6.31897 19.0226 6.34083 18.2208L 10.6534 16.2025L 10.2533 20.928C 9.66805 21.1552 9.16408 21.5506 8.80577 22.0639C 8.44746 22.5771 8.25106 23.185 8.24163 23.8097C 8.23221 24.4345 8.41019 25.0479 8.75286 25.5716C 9.09553 26.0953 9.58735 26.5056 10.1655 26.7501C 9.89537 27.2901 9.82951 27.9088 9.97998 28.4931C 10.1304 29.0774 10.4872 29.5884 10.9851 29.9328C 11.0666 29.9894 11.1674 30.0115 11.2653 29.9943C 11.3632 29.977 11.4502 29.9217 11.5071 29.8406C 11.564 29.7596 11.5863 29.6593 11.5689 29.562C 11.5515 29.4646 11.4959 29.3781 11.4144 29.3215L 11.4047 29.3118ZM 18.2345 12.816C 16.2831 13.8833 14.683 14.7567 14.0683 15.0769C 13.8848 14.9961 13.6912 14.9406 13.4926 14.9119L 18.2345 12.816ZM 10.4875 12.6025C 10.5461 11.9233 10.8192 10.0796 11.1607 7.93514L 10.8973 13.078C 10.8023 12.9045 10.6841 12.7445 10.5461 12.6025L 10.4875 12.6025ZM 1.80387 20.1032C 1.41269 19.8326 1.11094 19.4528 0.936781 19.0117C 0.762618 18.5706 0.72385 18.088 0.825378 17.625C 0.926906 17.162 1.16417 16.7393 1.50719 16.4104C 1.85021 16.0814 2.28358 15.861 2.75253 15.7769C 3.22148 15.6929 3.70496 15.749 4.14187 15.9381C 4.57878 16.1272 4.9495 16.441 5.20718 16.8396C 5.46486 17.2382 5.59793 17.7039 5.58958 18.1777C 5.58122 18.6515 5.43182 19.1122 5.16024 19.5016C 4.97972 19.7605 4.74966 19.9814 4.48322 20.1517C 4.21678 20.3221 3.91919 20.4385 3.60746 20.4944C 3.29573 20.5503 2.97599 20.5445 2.66651 20.4774C 2.35704 20.4103 2.0639 20.2831 1.80387 20.1032ZM 9.44352 22.4709C 9.71562 22.0818 10.0976 21.7818 10.5411 21.6086C 10.9846 21.4353 11.4699 21.3968 11.9354 21.4978C 12.401 21.5987 12.826 21.8347 13.1568 22.1758C 13.4875 22.517 13.7092 22.948 13.7937 23.4144C 13.8782 23.8807 13.8218 24.3616 13.6316 24.7961C 13.4414 25.2306 13.126 25.5993 12.7252 25.8556C 12.3243 26.1118 11.8561 26.2442 11.3797 26.2359C 10.9033 26.2275 10.44 26.079 10.0485 25.8089C 9.78818 25.6293 9.56605 25.4005 9.39476 25.1356C 9.22347 24.8706 9.10639 24.5746 9.05021 24.2646C 8.99402 23.9546 8.99984 23.6366 9.06733 23.3288C 9.13482 23.021 9.26265 22.7295 9.44352 22.4709Z"/>
</defs>
</svg>
