<svg width="99" height="99" viewBox="0 0 99 99" version="1.1" xmlns="http://www.w3.org/2000/svg" xmlns:xlink="http://www.w3.org/1999/xlink">
<title>logo_dreamteam-white</title>
<desc>Created using Figma</desc>
<g id="Canvas" transform="translate(-771 -3264)">
<g id="logo_dreamteam-white" filter="url(#filter0_d)">
<g id="Group">
<g id="&#208;&#161;&#208;&#187;&#208;&#190;&#208;&#185; 1">
<g id="Vector">
<use xlink:href="#path0_fill" transform="translate(829.199 3322.56)" fill="#FFFFFF"/>
</g>
<g id="Vector">
<use xlink:href="#path1_fill" transform="translate(817.069 3304.45)" fill="#FFFFFF"/>
</g>
<g id="Vector">
<use xlink:href="#path2_fill" transform="translate(781 3296.83)" fill="#FFFFFF"/>
</g>
<g id="Vector">
<use xlink:href="#path3_fill" transform="translate(805.53 3299.76)" fill="#FFFFFF"/>
</g>
<g id="Vector">
<use xlink:href="#path4_fill" transform="translate(817.59 3317.85)" fill="#FFFFFF"/>
</g>
<g id="Vector">
<use xlink:href="#path5_fill" transform="translate(774 3267)" fill="#FFFFFF"/>
</g>
</g>
</g>
</g>
</g>
<defs>
<filter id="filter0_d" filterUnits="userSpaceOnUse" x="770" y="3263" width="101" height="101" color-interpolation-filters="sRGB">
<feFlood flood-opacity="0" result="BackgroundImageFix"/>
<feColorMatrix in="SourceAlpha" type="matrix" values="0 0 0 0 0 0 0 0 0 0 0 0 0 0 0 0 0 0 255 0"/>
<feOffset dx="2" dy="2"/>
<feGaussianBlur stdDeviation="2.5"/>
<feColorMatrix type="matrix" values="0 0 0 0 0 0 0 0 0 0 0 0 0 0 0 0 0 0 0.15 0"/>
<feBlend mode="normal" in2="BackgroundImageFix" result="effect1_dropShadow"/>
<feBlend mode="normal" in="SourceGraphic" in2="effect1_dropShadow" result="shape"/>
</filter>
<path id="path0_fill" d="M 4.65059 0.290002L 3.65059 0.0900009C 3.30044 0.0300264 2.94584 -8.20687e-05 2.59059 7.80867e-07C 2.30546 0.00162921 2.02102 0.0283976 1.74059 0.0799988C 1.44676 0.130658 1.16309 0.228595 0.90059 0.37C 0.652697 0.50452 0.434909 0.68828 0.260591 0.910001C 0.0833804 1.14591 -0.00830706 1.43508 0.00059263 1.73C -0.00192967 1.99003 0.0748061 2.24466 0.22059 2.46C 0.379776 2.69152 0.583806 2.88875 0.820592 3.04C 1.0889 3.2138 1.38232 3.34534 1.69059 3.43C 2.03231 3.52559 2.38576 3.57272 2.74059 3.57C 3.16394 3.5736 3.58432 3.49901 3.98059 3.35C 4.33573 3.20946 4.67172 3.02467 4.98059 2.8C 5.26105 2.60477 5.50765 2.36493 5.7106 2.09C 5.86602 1.89316 5.96612 1.65843 6.00059 1.41L 6.00059 0.590001C 5.83122 0.577701 5.66362 0.547533 5.50059 0.500001L 4.65059 0.290002Z"/>
<path id="path1_fill" d="M 4.68059 0.310001L 3.68059 0.110001C 3.32116 0.0416014 2.95644 0.00479362 2.59059 1.42109e-14C 2.30546 0.00162843 2.02102 0.0284006 1.74059 0.0800018C 1.44677 0.130662 1.16309 0.228594 0.900593 0.369999C 0.6527 0.504519 0.434911 0.688279 0.260594 0.91C 0.0833832 1.14591 -0.00830813 1.43508 0.000591562 1.73C -0.00193074 1.99003 0.0748089 2.24466 0.220593 2.46C 0.379778 2.69152 0.583805 2.88875 0.820591 3.04C 1.0889 3.2138 1.38232 3.34534 1.69059 3.43C 2.03231 3.52559 2.38577 3.57272 2.74059 3.57C 3.14595 3.57397 3.54881 3.50626 3.93059 3.37C 4.28573 3.22946 4.62172 3.04467 4.93059 2.82C 5.21105 2.62477 5.45765 2.38493 5.66059 2.11C 5.81644 1.91341 5.9166 1.67856 5.95059 1.43L 5.95059 0.599998C 5.78122 0.587698 5.61362 0.557531 5.45059 0.509998L 4.68059 0.310001Z"/>
<path id="path2_fill" d="M 7.28 1.3C 6.60301 0.841497 5.85199 0.503204 5.06 0.3C 4.26188 0.101216 3.4425 0.000474045 2.62 1.06812e-06C 2.12 1.06812e-06 1.64333 0.0199986 1.19 0.0599986C 0.736666 0.0999986 0.34 0.153332 0 0.219998L 0 10.98C 0.385095 11.0684 0.776136 11.1286 1.17 11.16C 1.62333 11.2 2.02 11.22 2.36 11.22C 3.27357 11.2237 4.18401 11.1128 5.07 10.89C 5.88136 10.698 6.65071 10.3591 7.34 9.89C 7.9946 9.43095 8.53234 8.8247 8.91 8.12C 9.31783 7.31551 9.51725 6.42155 9.49 5.52C 9.51731 4.64232 9.30283 3.77402 8.87 3.01C 8.47592 2.32725 7.93232 1.74263 7.28 1.3Z"/>
<path id="path3_fill" d="M 2.21 3.08044L 3.32 3.08044C 3.63428 3.0801 3.94823 3.06007 4.26 3.02044C 4.54736 2.98955 4.82773 2.91186 5.09 2.79044C 5.32007 2.68089 5.51936 2.51596 5.67 2.31044C 5.8238 2.08391 5.90091 1.81403 5.89 1.54044C 5.90951 1.30265 5.86056 1.06424 5.74892 0.853369C 5.63729 0.642501 5.46763 0.467987 5.26 0.350443C 4.82154 0.112286 4.32889 -0.00829141 3.83 0.000444438C 3.3702 0.00254284 2.91277 0.0664472 2.47 0.190443C 2.04408 0.307287 1.64151 0.496733 1.28 0.750444C 0.925878 1.00179 0.629304 1.32563 0.409999 1.70044C 0.172055 2.12047 0.0319117 2.58876 -1.2207e-06 3.07044L 1.26 3.07044C 1.51333 3.07044 1.83 3.07378 2.21 3.08044Z"/>
<path id="path4_fill" d="M 2.24 3.08044L 3.35 3.08044C 3.66428 3.08013 3.97823 3.06009 4.29 3.02044C 4.57736 2.98955 4.85773 2.91186 5.12 2.79044C 5.35007 2.68089 5.54936 2.51596 5.7 2.31044C 5.8538 2.08391 5.93091 1.81403 5.92 1.54044C 5.93951 1.30265 5.89055 1.06424 5.77892 0.853369C 5.66728 0.642502 5.49763 0.467987 5.29 0.350443C 4.85154 0.112286 4.35889 -0.00829125 3.86 0.00044459C 3.39015 -0.00017484 2.92245 0.0637548 2.47 0.190443C 2.04408 0.307287 1.64151 0.496733 1.28 0.750445C 0.925875 1.00179 0.629306 1.32563 0.41 1.70044C 0.172057 2.12047 0.0319131 2.58876 1.52588e-07 3.07044L 1.26 3.07044C 1.53333 3.07044 1.86 3.07378 2.24 3.08044Z"/>
<path id="path5_fill" d="M 44.5 -4.76837e-08C 35.6987 -4.76837e-08 27.0951 2.60988 19.7771 7.4996C 12.4592 12.3893 6.75548 19.3393 3.38738 27.4706C 0.0192809 35.6019 -0.861967 44.5494 0.855075 53.1815C 2.57212 61.8137 6.81033 69.7428 13.0338 75.9662C 19.2572 82.1897 27.1863 86.4279 35.8185 88.1449C 44.4507 89.862 53.3981 88.9807 61.5294 85.6126C 69.6607 82.2445 76.6107 76.5409 81.5004 69.2229C 86.3901 61.9049 89 53.3013 89 44.5C 89 32.6979 84.3116 21.3791 75.9663 13.0337C 67.6209 4.68838 56.3022 -4.76837e-08 44.5 -4.76837e-08ZM 27.79 36C 28.0407 35.9249 28.2989 35.8779 28.56 35.86L 29.33 35.79C 29.3659 35.0769 29.5391 34.3775 29.84 33.73C 30.1224 33.1371 30.5162 32.6041 31 32.16C 31.5192 31.6972 32.1239 31.3405 32.78 31.11C 33.5092 30.8548 34.2775 30.7295 35.05 30.74C 35.8893 30.728 36.7181 30.9274 37.46 31.32C 38.0091 31.6362 38.4753 32.0784 38.82 32.61C 39.1893 33.1527 39.3878 33.7935 39.39 34.45C 39.3805 35.1802 39.1231 35.8854 38.66 36.45C 38.2223 37.0638 37.5924 37.5143 36.87 37.73C 36.1336 37.93 35.3731 38.0276 34.61 38.02C 34.25 38.02 33.8334 38.02 33.36 38.02C 32.8867 38.02 32.4534 38.02 32.06 38.02L 31.76 38.02L 31.5 38.02L 31.5 38.14C 31.4747 38.5366 31.5451 38.9335 31.7052 39.2972C 31.8653 39.6609 32.1104 39.9808 32.42 40.23C 33.0847 40.7192 33.8952 40.9694 34.72 40.94C 35.1562 40.9422 35.5916 40.902 36.02 40.82C 36.4076 40.733 36.786 40.6091 37.15 40.45C 37.4941 40.3097 37.8283 40.146 38.15 39.96C 38.4767 39.7733 38.81 39.57 39.15 39.35L 39.15 41.57C 38.5496 41.9743 37.9055 42.3097 37.23 42.57C 36.4352 42.8869 35.5855 43.0432 34.73 43.03C 34.0092 43.0372 33.2924 42.9223 32.61 42.69C 31.9897 42.4705 31.4188 42.1306 30.93 41.69C 30.4411 41.2528 30.0494 40.718 29.78 40.12C 29.4803 39.4489 29.3171 38.7248 29.3 37.99L 29.3 37.87C 29.0534 37.87 28.8 37.89 28.54 37.93C 28.2802 37.9378 28.0234 37.9885 27.78 38.08L 27.79 36ZM 17.86 38.76C 17.407 39.6989 16.7389 40.5177 15.91 41.15C 15.0433 41.8109 14.0543 42.2935 13 42.57C 11.8648 42.8709 10.6944 43.0189 9.52002 43.01L 8.23002 43.01L 6.89002 43.01L 5.74002 42.93C 5.4708 42.9094 5.20343 42.8693 4.94002 42.81L 4.94002 28.15C 5.64002 28.07 6.41335 27.9967 7.26002 27.93C 8.10669 27.8633 8.98002 27.8267 9.88002 27.82C 10.9919 27.8154 12.098 27.9806 13.16 28.31C 14.1664 28.6146 15.1062 29.1066 15.93 29.76C 16.7263 30.3989 17.3774 31.2 17.84 32.11C 18.3319 33.1107 18.5755 34.2152 18.55 35.33C 18.5875 36.5252 18.3479 37.7128 17.85 38.8L 17.86 38.76ZM 25.16 32.98C 24.7121 33.1278 24.2976 33.3623 23.94 33.67C 23.5663 33.9927 23.2685 34.394 23.0679 34.8452C 22.8674 35.2964 22.7691 35.7864 22.78 36.28L 22.78 42.78L 20.65 42.78L 20.65 31.1L 22.76 31.1L 22.76 32.32C 22.9099 31.9857 23.1443 31.6962 23.44 31.48C 23.7439 31.2601 24.0817 31.0912 24.44 30.98C 24.7943 30.8654 25.1596 30.7883 25.53 30.75C 25.862 30.7121 26.1959 30.6921 26.53 30.69L 27.72 30.69L 27.72 32.8L 26.57 32.8C 26.0878 32.7947 25.608 32.869 25.15 33.02L 25.16 32.98ZM 38 49.9C 37.0803 49.8899 36.1696 49.7173 35.31 49.39L 35.31 60.89L 33.31 60.89L 33.31 48.56C 32.9514 48.4326 32.5837 48.3324 32.21 48.26C 31.812 48.178 31.4064 48.1378 31 48.14C 30.6197 48.1352 30.2423 48.2066 29.89 48.35C 29.7158 48.4333 29.5715 48.5682 29.4767 48.7364C 29.3819 48.9046 29.3411 49.0979 29.36 49.29L 27.36 49.29C 27.3488 48.8202 27.4482 48.3544 27.65 47.93C 27.8307 47.5418 28.0975 47.1998 28.43 46.93C 28.7765 46.6651 29.1702 46.4683 29.59 46.35C 30.0577 46.2135 30.5428 46.1462 31.03 46.15C 31.7359 46.1412 32.4395 46.2321 33.12 46.42C 33.7008 46.5879 34.2717 46.7882 34.83 47.02C 35.35 47.24 35.8567 47.44 36.35 47.62C 36.8401 47.7994 37.3581 47.8908 37.88 47.89C 38.1266 47.8987 38.373 47.8683 38.61 47.8C 38.7795 47.7493 38.9295 47.6481 39.04 47.51C 39.1516 47.3528 39.2236 47.171 39.25 46.98C 39.2932 46.7152 39.3199 46.4481 39.33 46.18L 41.33 46.18C 41.3177 46.6697 41.2334 47.1548 41.08 47.62C 40.9425 48.0469 40.7253 48.4439 40.44 48.79C 40.1509 49.1325 39.7887 49.4059 39.38 49.59C 38.9455 49.7849 38.4762 49.8903 38 49.9ZM 44.56 58.29C 45.2247 58.7792 46.0352 59.0294 46.86 59C 47.2962 59.0022 47.7316 58.962 48.16 58.88C 48.5429 58.8054 48.9179 58.6949 49.28 58.55C 49.6241 58.4097 49.9582 58.2459 50.28 58.06C 50.6067 57.8733 50.94 57.67 51.28 57.45L 51.28 59.67C 50.6796 60.0743 50.0355 60.4097 49.36 60.67C 48.5652 60.9869 47.7155 61.1432 46.86 61.13C 46.1392 61.1372 45.4224 61.0223 44.74 60.79C 44.1197 60.5705 43.5488 60.2306 43.06 59.79C 42.5711 59.3528 42.1794 58.818 41.91 58.22C 41.6103 57.5489 41.4471 56.8248 41.43 56.09L 41.43 56.05C 41.1834 56.05 40.93 56.07 40.67 56.11C 40.4102 56.1178 40.1534 56.1685 39.91 56.26L 39.91 54.13C 40.1607 54.0549 40.4189 54.0079 40.68 53.99L 41.45 53.92C 41.4859 53.2069 41.6591 52.5075 41.96 51.86C 42.2469 51.2503 42.6513 50.7031 43.15 50.25C 43.6692 49.7872 44.2739 49.4305 44.93 49.2C 45.6592 48.9448 46.4275 48.8195 47.2 48.83C 48.0393 48.818 48.8681 49.0174 49.61 49.41C 50.1591 49.7262 50.6253 50.1684 50.97 50.7C 51.3306 51.2489 51.5187 51.8933 51.51 52.55C 51.5005 53.2802 51.2431 53.9854 50.78 54.55C 50.3448 55.162 49.7188 55.6123 49 55.83C 48.2636 56.03 47.5031 56.1276 46.74 56.12C 46.38 56.12 45.9634 56.12 45.49 56.12C 45.0167 56.12 44.5834 56.12 44.19 56.12L 43.89 56.12L 43.63 56.12L 43.63 56.24C 43.6092 56.6259 43.6788 57.0113 43.8333 57.3654C 43.9878 57.7196 44.223 58.0328 44.52 58.28L 44.56 58.29ZM 52.7 37.77L 51.25 38L 51.25 39.75C 51.25 40.3167 51.25 40.8233 51.25 41.27C 51.25 41.7167 51.25 42.0767 51.25 42.35L 51.25 42.78L 49.07 42.78L 49.07 41.55C 48.6427 42.0871 48.0751 42.4955 47.43 42.73C 46.7894 42.9644 46.1122 43.0829 45.43 43.08C 44.8741 43.0775 44.3215 42.9933 43.79 42.83C 43.2601 42.6723 42.7623 42.4217 42.32 42.09C 41.8843 41.7617 41.5259 41.3419 41.27 40.86C 40.9943 40.3294 40.8568 39.7378 40.87 39.14C 40.8736 38.5559 41.0033 37.9794 41.25 37.45C 41.4625 36.9859 41.7852 36.5808 42.19 36.27C 42.6072 35.9554 43.0833 35.7275 43.59 35.6C 44.1687 35.4549 44.7635 35.3843 45.36 35.39C 45.9593 35.3929 46.5576 35.4396 47.15 35.53C 47.8036 35.6274 48.4488 35.7745 49.08 35.97L 49.08 35.85C 49.0932 35.7404 49.0932 35.6296 49.08 35.52L 49.08 35.22C 49.088 34.8384 49.0022 34.4607 48.83 34.12C 48.6755 33.8196 48.4571 33.5568 48.19 33.35C 47.9202 33.1437 47.6153 32.9879 47.29 32.89C 46.9655 32.7929 46.6288 32.7424 46.29 32.74C 45.9532 32.741 45.6175 32.7812 45.29 32.86C 44.9744 32.9317 44.6734 33.0569 44.4 33.23C 44.1381 33.3954 43.9134 33.6133 43.74 33.87C 43.5636 34.1449 43.4667 34.4634 43.46 34.79L 41.31 34.79C 41.3401 34.1602 41.511 33.5451 41.81 32.99C 42.0841 32.4946 42.4588 32.062 42.91 31.72C 43.3647 31.3797 43.8758 31.1224 44.42 30.96C 44.9806 30.7878 45.5636 30.7002 46.15 30.7C 46.807 30.6958 47.461 30.7902 48.09 30.98C 48.6973 31.1613 49.2556 31.4777 49.7232 31.9055C 50.1908 32.3332 50.5555 32.8613 50.79 33.45C 51.0809 34.1816 51.227 34.9627 51.22 35.75L 51.22 35.87L 51.93 35.75L 52.69 35.59L 52.7 37.77ZM 64.79 55.86L 63.34 56.09L 63.34 57.83C 63.34 58.3967 63.34 58.9033 63.34 59.35C 63.34 59.7967 63.34 60.1567 63.34 60.43L 63.34 60.86L 61.17 60.86L 61.17 59.65C 60.743 60.1875 60.1753 60.596 59.53 60.83C 58.8894 61.0644 58.2122 61.1829 57.53 61.18C 56.9741 61.1774 56.4215 61.0932 55.89 60.93C 55.3601 60.7723 54.8623 60.5217 54.42 60.19C 53.9843 59.8617 53.6259 59.4419 53.37 58.96C 53.0943 58.4294 52.9568 57.8378 52.97 57.24C 52.9553 56.6454 53.0713 56.0548 53.31 55.51C 53.5225 55.0459 53.8452 54.6408 54.25 54.33C 54.6672 54.0154 55.1433 53.7875 55.65 53.66C 56.2384 53.5123 56.8435 53.4417 57.45 53.45C 58.0493 53.4529 58.6476 53.4996 59.24 53.59C 59.8936 53.6874 60.5388 53.8345 61.17 54.03L 61.17 53.94C 61.1833 53.8304 61.1833 53.7196 61.17 53.61L 61.17 53.31C 61.178 52.9284 61.0922 52.5507 60.92 52.21C 60.7655 51.9096 60.5471 51.6468 60.28 51.44C 60.0102 51.2337 59.7053 51.0779 59.38 50.98C 59.0555 50.8829 58.7188 50.8324 58.38 50.83C 58.0432 50.831 57.7076 50.8712 57.38 50.95C 57.0644 51.0217 56.7634 51.1469 56.49 51.32C 56.2318 51.4865 56.0105 51.7043 55.84 51.96C 55.6636 52.2349 55.5667 52.5534 55.56 52.88L 53.4 52.88C 53.4301 52.2502 53.601 51.6351 53.9 51.08C 54.1753 50.5882 54.5499 50.1591 55 49.82C 55.4547 49.4797 55.9658 49.2224 56.51 49.06C 57.0706 48.8878 57.6536 48.8002 58.24 48.8C 58.897 48.7958 59.551 48.8902 60.18 49.08C 60.7842 49.2582 61.3406 49.57 61.808 49.9924C 62.2754 50.4147 62.6418 50.9368 62.88 51.52C 63.1709 52.2516 63.317 53.0327 63.31 53.82L 63.31 53.94L 64.02 53.82L 64.78 53.66L 64.79 55.86ZM 65.53 33.45C 65.2369 33.7014 65.0044 34.016 64.85 34.37C 64.6569 34.8283 64.5648 35.3229 64.58 35.82L 64.58 42.82L 62.48 42.82L 62.48 35.82C 62.4779 35.5121 62.4545 35.2047 62.41 34.9C 62.3631 34.5662 62.2546 34.2441 62.09 33.95C 61.9128 33.6405 61.6621 33.3795 61.36 33.19C 60.9512 32.9361 60.4812 32.7979 60 32.79C 59.6217 32.7903 59.2451 32.8407 58.88 32.94C 58.5099 33.0415 58.1679 33.2262 57.88 33.48C 57.5588 33.7767 57.315 34.1475 57.17 34.56C 56.9725 35.1285 56.881 35.7285 56.9 36.33L 56.9 42.83L 54.8 42.83L 54.8 31.1L 56.93 31.1L 56.93 32.22C 57.0891 31.9055 57.3183 31.6318 57.6 31.42C 57.8569 31.2252 58.1396 31.067 58.44 30.95C 58.7112 30.8464 58.9929 30.7726 59.28 30.73C 59.5017 30.6948 59.7256 30.6748 59.95 30.67C 60.8718 30.6371 61.7915 30.7796 62.66 31.09C 63.2519 31.3012 63.772 31.6757 64.16 32.17C 64.3723 31.8775 64.6367 31.6266 64.94 31.43C 65.2293 31.2414 65.5377 31.0838 65.86 30.96C 66.141 30.8527 66.4327 30.7756 66.73 30.73C 66.9219 30.6975 67.1156 30.6775 67.31 30.67C 68.0199 30.6562 68.7268 30.7645 69.4 30.99C 69.965 31.1804 70.4643 31.5271 70.84 31.99C 71.2477 32.5391 71.5309 33.1704 71.67 33.84C 71.8872 34.7508 71.998 35.6837 72 36.62L 72 42.77L 69.85 42.77L 69.85 36.55C 69.8511 36.0858 69.8277 35.6218 69.78 35.16C 69.7414 34.7513 69.6332 34.3522 69.46 33.98C 69.2995 33.6402 69.0465 33.3526 68.73 33.15C 68.3289 32.917 67.8739 32.7929 67.41 32.79C 67.0718 32.7896 66.7352 32.8367 66.41 32.93C 66.0834 33.0395 65.7835 33.2167 65.53 33.45ZM 81.94 60.87L 81.94 54.65C 81.9411 54.1858 81.9177 53.7218 81.87 53.26C 81.8314 52.8513 81.7232 52.4522 81.55 52.08C 81.3895 51.7402 81.1365 51.4526 80.82 51.25C 80.4189 51.017 79.9639 50.8928 79.5 50.89C 79.1618 50.8896 78.8251 50.9367 78.5 51.03C 78.1661 51.1238 77.856 51.2874 77.59 51.51C 77.2969 51.7614 77.0644 52.076 76.91 52.43C 76.7169 52.8883 76.6248 53.3829 76.64 53.88L 76.64 60.88L 74.57 60.88L 74.57 53.88C 74.5679 53.5721 74.5445 53.2647 74.5 52.96C 74.4531 52.6262 74.3446 52.3041 74.18 52.01C 74.0028 51.7005 73.7521 51.4395 73.45 51.25C 73.0489 51.017 72.5939 50.8928 72.13 50.89C 71.7517 50.8903 71.3751 50.9407 71.01 51.04C 70.6399 51.1415 70.2979 51.3262 70.01 51.58C 69.6888 51.8767 69.445 52.2475 69.3 52.66C 69.0899 53.2329 68.9882 53.8399 69 54.45L 69 60.95L 66.9 60.95L 66.9 49.2L 69 49.2L 69 50.32C 69.1591 50.0055 69.3883 49.7318 69.67 49.52C 69.9268 49.3251 70.2095 49.1669 70.51 49.05C 70.7812 48.9464 71.0629 48.8726 71.35 48.83C 71.5717 48.7948 71.7956 48.7747 72.02 48.77C 72.9418 48.7371 73.8615 48.8796 74.73 49.19C 75.3219 49.4012 75.842 49.7757 76.23 50.27C 76.4423 49.9775 76.7067 49.7266 77.01 49.53C 77.2993 49.3414 77.6077 49.1839 77.93 49.06C 78.211 48.9527 78.5027 48.8756 78.8 48.83C 78.9919 48.7975 79.1856 48.7775 79.38 48.77C 80.0899 48.7562 80.7968 48.8645 81.47 49.09C 82.035 49.2803 82.5343 49.6271 82.91 50.09C 83.3177 50.6391 83.6009 51.2704 83.74 51.94C 83.9337 52.8535 84.0209 53.7864 84 54.72L 84 60.87L 81.94 60.87Z"/>
</defs>
</svg>
