<svg width="146" height="36" viewBox="0 0 146 36" version="1.1" xmlns="http://www.w3.org/2000/svg" xmlns:xlink="http://www.w3.org/1999/xlink">
<title>molfar-logo-white</title>
<desc>Created using Figma</desc>
<g id="Canvas" transform="translate(484 487)">
<g id="molfar-logo-white">
<g id="Vector">
<use xlink:href="#path0_fill" transform="translate(-440.539 -481.954)" fill="#FFFFFF"/>
</g>
<g id="Vector">
<use xlink:href="#path1_fill" transform="translate(-408.997 -474.424)" fill="#FFFFFF"/>
</g>
<g id="Vector">
<use xlink:href="#path2_fill" transform="translate(-386.965 -482.685)" fill="#FFFFFF"/>
</g>
<g id="Vector">
<use xlink:href="#path3_fill" transform="translate(-381.05 -482.334)" fill="#FFFFFF"/>
</g>
<g id="Vector">
<use xlink:href="#path4_fill" transform="translate(-367.636 -474.498)" fill="#FFFFFF"/>
</g>
<g id="Vector">
<use xlink:href="#path5_fill" transform="translate(-348.568 -474.452)" fill="#FFFFFF"/>
</g>
<g id="Vector">
<use xlink:href="#path6_fill" transform="translate(-481.241 -484.256)" fill="#FFFFFF"/>
</g>
<g id="Vector">
<use xlink:href="#path7_fill" transform="translate(-484 -471.752)" fill="#FFFFFF"/>
</g>
<g id="Vector">
<use xlink:href="#path8_fill" transform="translate(-453.544 -471.781)" fill="#FFFFFF"/>
</g>
<g id="Vector">
<use xlink:href="#path9_fill" transform="translate(-468.779 -456.503)" fill="#FFFFFF"/>
</g>
<g id="Vector">
<use xlink:href="#path10_fill" transform="translate(-468.75 -487)" fill="#FFFFFF"/>
</g>
</g>
</g>
<defs>
<path id="path0_fill" d="M 13.0632 19.7861L 13.2981 19.1991C 13.3748 19.0128 13.463 18.8314 13.5623 18.6561L 23.8367 0.369874C 23.9013 0.243637 24.004 0.140941 24.1303 0.0763561C 24.2663 0.0527971 24.4053 0.0527971 24.5413 0.0763561L 25.8623 0.0763561L 25.8623 26.3316L 24.3358 26.3316L 24.3358 3.90677C 24.3179 3.56456 24.3179 3.22166 24.3358 2.87945L 14.032 21.2684C 13.9686 21.4137 13.8637 21.5371 13.7306 21.6232C 13.5975 21.7094 13.442 21.7544 13.2834 21.7527L 12.9898 21.7527C 12.8321 21.7507 12.6781 21.7042 12.5457 21.6185C 12.4132 21.5328 12.3077 21.4114 12.2413 21.2684L 1.59988 2.86478C 1.618 3.21187 1.618 3.55967 1.59988 3.90677L 1.59988 26.3316L 5.59913e-07 26.3316L 5.59913e-07 0.0176525L 1.321 0.0176525C 1.46191 -0.00588417 1.60575 -0.00588417 1.74666 0.0176525C 1.87898 0.0788019 1.98736 0.182002 2.05489 0.31117L 12.6816 18.612C 12.8404 18.9924 12.968 19.3851 13.0632 19.7861Z"/>
<path id="path1_fill" d="M 8.44063 0.00150746C 9.66331 -0.0210046 10.8775 0.208811 12.0073 0.676599C 13.0281 1.10617 13.9369 1.76384 14.664 2.59914C 15.4012 3.4589 15.96 4.45664 16.3079 5.53433C 16.7027 6.80751 16.8958 8.1346 16.8804 9.46747C 16.896 10.7955 16.7028 12.1178 16.3079 13.3859C 15.9596 14.4635 15.4009 15.4611 14.664 16.3211C 13.9391 17.1588 13.0297 17.8169 12.0073 18.2437C 9.71823 19.1354 7.17772 19.1354 4.8886 18.2437C 3.86782 17.8141 2.95902 17.1564 2.23193 16.3211C 1.48757 15.464 0.92349 14.4658 0.573336 13.3859C 0.178218 12.1179 -0.0149531 10.7956 0.000902661 9.46747C 0.00230524 8.15763 0.205276 6.85581 0.602692 5.6077C 0.952846 4.52789 1.51693 3.52964 2.26128 2.67252C 2.99047 1.83951 3.8987 1.18225 4.91796 0.749979C 6.02886 0.262931 7.22765 0.00822069 8.44063 0.00150746ZM 8.44063 17.6126C 9.44932 17.6397 10.4516 17.4443 11.3762 17.0402C 12.1884 16.6737 12.8988 16.1145 13.4458 15.4112C 14.0222 14.6503 14.4413 13.7822 14.6787 12.8576C 14.9645 11.7606 15.1027 10.6304 15.0897 9.49682C 15.101 8.3682 14.9628 7.24305 14.6787 6.15071C 14.4413 5.21716 14.0223 4.33948 13.4458 3.56775C 12.8988 2.86075 12.1887 2.29676 11.3762 1.92405C 10.4596 1.54376 9.47702 1.34801 8.48466 1.34801C 7.49231 1.34801 6.50972 1.54376 5.59314 1.92405C 4.78084 2.31075 4.07539 2.89014 3.53825 3.61178C 2.95649 4.38232 2.53252 5.26007 2.29064 6.19474C 1.99825 7.28577 1.85507 8.41138 1.86498 9.54085C 1.85337 10.6753 1.99658 11.8059 2.29064 12.9016C 2.5361 13.826 2.95992 14.6935 3.53825 15.4552C 4.08524 16.1586 4.79566 16.7177 5.60782 17.0843C 6.50081 17.4738 7.46645 17.6689 8.44063 17.6566L 8.44063 17.6126Z"/>
<path id="path2_fill" d="M 1.77601 -3.35905e-07L 1.77601 27.0624L -2.23965e-06 27.0624L -2.23965e-06 -3.35905e-07L 1.77601 -3.35905e-07Z"/>
<path id="path3_fill" d="M 3.09701 26.7108L 3.09701 10.1417L 0.543078 9.96557C 0.181026 9.96557 -4.03138e-06 9.80902 -4.03138e-06 9.49594L -4.03138e-06 8.77682L 3.14104 8.77682L 3.14104 6.44335C 3.10025 5.50167 3.2143 4.55968 3.47864 3.65493C 3.71929 2.91496 4.11455 2.23461 4.63818 1.659C 5.12306 1.10491 5.73143 0.672572 6.4142 0.396875C 7.15644 0.123931 7.94251 -0.0103808 8.73329 0.000625619C 9.12203 0.00164567 9.50997 0.0360158 9.89284 0.103357C 10.245 0.163473 10.5895 0.261896 10.9203 0.396875L 10.9203 1.24808C 10.9203 1.42419 10.7882 1.51224 10.568 1.51224L 9.96622 1.51224C 9.65348 1.49015 9.33958 1.49015 9.02684 1.51224C 8.45331 1.50436 7.88258 1.59368 7.33889 1.77641C 6.82945 1.95128 6.37079 2.24863 6.00322 2.64229C 5.60234 3.08992 5.30647 3.6214 5.13722 4.19794C 4.91566 4.96042 4.81172 5.75225 4.82899 6.54608L 4.82899 8.83552L 10.8175 8.83552L 10.8175 10.1564L 4.85835 10.1564L 4.85835 26.7108L 3.09701 26.7108Z"/>
<path id="path4_fill" d="M 12.7859 18.8749C 12.6273 18.8923 12.468 18.849 12.34 18.7537C 12.212 18.6584 12.1248 18.5182 12.0961 18.3612L 11.8319 16.0424C 11.3657 16.5123 10.8758 16.958 10.3641 17.3779C 9.87614 17.7634 9.34988 18.0979 8.79359 18.3759C 8.2335 18.6517 7.64208 18.8586 7.03225 18.9923C 6.34777 19.1424 5.64875 19.2163 4.948 19.2124C 4.32582 19.213 3.70717 19.119 3.11328 18.9336C 2.53348 18.7582 1.99454 18.4688 1.52807 18.0824C 1.05703 17.6806 0.681047 17.1794 0.427239 16.6148C 0.128269 15.9306 -0.0170293 15.1892 0.00158187 14.4427C 0.00242184 13.6672 0.237791 12.9101 0.67677 12.2707C 1.21859 11.5215 1.94045 10.9209 2.77569 10.5243C 3.93721 9.95836 5.1724 9.55821 6.44514 9.33553C 8.19548 8.97687 9.97283 8.76578 11.7585 8.70446L 11.7585 6.82595C 11.8477 5.40324 11.4433 3.99332 10.6136 2.8341C 10.2122 2.36241 9.70548 1.99176 9.13433 1.75211C 8.56317 1.51246 7.94365 1.41053 7.32581 1.45457C 6.5512 1.43384 5.77956 1.55828 5.05075 1.82146C 4.49363 2.03607 3.96198 2.3117 3.46554 2.64331C 3.0952 2.8932 2.74214 3.16777 2.40875 3.46516C 2.22895 3.66457 1.98476 3.79444 1.71889 3.83206C 1.60332 3.83532 1.48925 3.80521 1.39033 3.74535C 1.29142 3.68549 1.21184 3.59841 1.16113 3.49451L 0.838216 2.95151C 1.71839 2.0438 2.75191 1.29857 3.8912 0.750121C 5.03013 0.237755 6.26786 -0.0177765 7.51662 0.00164919C 8.40539 -0.0182164 9.28903 0.141518 10.1146 0.471279C 10.8322 0.770252 11.4668 1.23855 11.964 1.83614C 12.4751 2.4666 12.85 3.19619 13.0648 3.97882C 13.3655 4.89885 13.5288 5.85824 13.5492 6.82595L 13.5492 18.8749L 12.7859 18.8749ZM 5.34431 17.8916C 6.01206 17.8969 6.67781 17.818 7.32581 17.6568C 7.90787 17.5107 8.46982 17.2939 8.99907 17.011C 9.52293 16.7323 10.0151 16.3977 10.4669 16.0131C 10.917 15.6315 11.3573 15.2157 11.7879 14.7656L 11.7879 9.95191C 10.2638 9.9789 8.74348 10.1113 7.23773 10.3482C 6.15813 10.5098 5.10294 10.8056 4.09669 11.2287C 3.38866 11.5161 2.76321 11.9751 2.27664 12.5642C 1.88864 13.0686 1.68182 13.689 1.68953 14.3253C 1.67563 14.8793 1.78074 15.4298 1.99776 15.9397C 2.17708 16.3616 2.44785 16.7384 2.79052 17.043C 3.13319 17.3475 3.53921 17.5722 3.97927 17.7008C 4.4226 17.8303 4.88244 17.8946 5.34431 17.8916Z"/>
<path id="path5_fill" d="M 3.13551e-06 18.8295L 3.13551e-06 0.323146L 0.9247 0.323146C 1.08749 0.309395 1.24959 0.356453 1.37971 0.45523C 1.4868 0.576574 1.54443 0.733704 1.54116 0.895507L 1.68795 4.7993C 2.19159 3.46309 3.01267 2.26939 4.08043 1.32111C 5.08335 0.456502 6.367 -0.0130654 7.69116 0.000277282C 8.21014 -0.00401216 8.72771 0.0551297 9.23234 0.176388C 9.69662 0.293202 10.1451 0.46567 10.568 0.690044L 10.3332 1.92282C 10.3221 2.00982 10.2776 2.08911 10.2091 2.1439C 10.1407 2.19868 10.0535 2.22466 9.96623 2.21634C 9.85525 2.21003 9.74611 2.18523 9.64331 2.14296L 9.15894 1.98152C 8.91302 1.91222 8.66301 1.8583 8.41037 1.82009C 8.07045 1.76774 7.72684 1.7432 7.38293 1.74671C 6.74997 1.72379 6.1188 1.82752 5.52648 2.05181C 4.93416 2.27611 4.39263 2.61645 3.93365 3.05287C 2.94668 4.1183 2.22284 5.39994 1.82005 6.79522L 1.82005 18.8295L 3.13551e-06 18.8295Z"/>
<path id="path6_fill" d="M 30.4564 7.52874L 30.2803 7.64615L 23.4845 14.4998C 23.4405 14.5491 23.386 14.5879 23.3251 14.6133C 23.2641 14.6387 23.1982 14.6501 23.1322 14.6466L 16.8061 14.6466L 17.3932 15.1896L 16.7767 15.8206L 23.1616 15.8206C 23.2218 15.8176 23.2819 15.8279 23.3377 15.8507C 23.3935 15.8735 23.4436 15.9084 23.4845 15.9527L 30.2803 22.8651L 30.4271 23.0118L 24.0716 23.0118C 24.0034 23.0155 23.9353 23.0043 23.8719 22.9789C 23.8085 22.9536 23.7515 22.9147 23.7046 22.8651L 16.8648 16.0261L 16.762 15.9087L 15.8814 16.8039L 15.9841 16.8039L 21.3855 22.2046L 22.8533 23.6722C 22.9062 23.7281 22.9374 23.8009 22.9414 23.8777C 22.9414 26.0106 22.9414 28.1386 22.9414 30.2617C 22.9414 30.2617 22.9414 30.2617 22.9414 30.3938L 22.7946 30.2617L 18.1564 25.6241L 15.9254 23.3934C 15.8822 23.3548 15.848 23.3072 15.8251 23.254C 15.8023 23.2007 15.7915 23.1431 15.7933 23.0852C 15.7933 21.0208 15.7933 18.9564 15.7933 16.892C 15.7933 16.892 15.7933 16.7892 15.7933 16.7012L 15.1915 17.3176L 14.6338 16.7012L 14.6338 16.9947C 14.6338 19.0591 14.6338 21.1186 14.6338 23.1733C 14.6368 23.2335 14.6265 23.2936 14.6037 23.3494C 14.5808 23.4052 14.546 23.4553 14.5017 23.4961L 7.64713 30.3498C 7.6079 30.395 7.57347 30.4442 7.54439 30.4965C 7.54439 30.4965 7.54439 30.4085 7.54439 30.3645C 7.54439 28.2511 7.54439 26.1378 7.54439 24.0245C 7.54366 23.9802 7.55246 23.9364 7.57019 23.8959C 7.58792 23.8553 7.61416 23.8191 7.64713 23.7896L 14.531 16.9066L 14.6484 16.8039L 13.7678 15.938L 13.665 16.0261L 6.79582 22.8651C 6.74899 22.9147 6.69191 22.9536 6.62853 22.9789C 6.56516 23.0043 6.49703 23.0155 6.42887 23.0118L -1.67974e-07 23.0118L 0.102745 22.8651L 7.00131 15.9674C 7.04063 15.926 7.08874 15.894 7.14208 15.8737C 7.19543 15.8533 7.25265 15.8453 7.30954 15.85L 13.6944 15.85L 13.1073 15.2483L 13.6944 14.7053L 7.30954 14.7053C 7.24932 14.7083 7.18918 14.698 7.13337 14.6752C 7.07757 14.6524 7.02747 14.6175 6.98663 14.5732L 0.1321 7.64615L -1.67974e-07 7.49939L 6.45823 7.49939C 6.5186 7.48676 6.58118 7.48956 6.64018 7.50751C 6.69919 7.52547 6.75272 7.55801 6.79582 7.60212L 12.5495 13.3698L 13.6797 14.4998L 13.7678 14.5879L 14.6191 13.7366L 14.531 13.6486L 7.6031 6.72156C 7.56368 6.68387 7.53281 6.63817 7.51255 6.58754C 7.4923 6.5369 7.48313 6.48252 7.48567 6.42805C 7.48567 4.34407 7.48567 2.2552 7.48567 0.161435L 7.48567 1.11968e-07L 7.6031 0.102731L 14.5163 7.01508C 14.5554 7.04992 14.5862 7.09302 14.6065 7.14126C 14.6268 7.18949 14.6361 7.24164 14.6338 7.29393C 14.6338 9.35834 14.6338 11.4227 14.6338 13.4872C 14.6338 13.4872 14.6338 13.6046 14.6338 13.7073L 15.2355 13.1056L 15.7933 13.6926L 15.7933 13.5312C 15.7933 11.4668 15.7933 9.40726 15.7933 7.35263C 15.7891 7.29011 15.7988 7.22744 15.8216 7.16909C 15.8445 7.11074 15.8799 7.05815 15.9254 7.01508L 22.7946 0.146759L 22.9414 0.014676L 22.9414 0.205463C 22.9414 2.30901 22.9414 4.41256 22.9414 6.5161C 22.9627 6.58293 22.9627 6.65474 22.9414 6.72156L 16.0575 13.6046L 15.9254 13.6926L 16.8354 14.6025C 16.8645 14.5502 16.8989 14.501 16.9382 14.4558L 23.7927 7.58744C 23.8304 7.54804 23.8761 7.51717 23.9267 7.49691C 23.9774 7.47666 24.0318 7.4675 24.0863 7.47004L 30.5005 7.47004L 30.4564 7.52874ZM 15.2209 16.0701L 16.0428 15.2483L 15.2355 14.4411L 14.4136 15.2629L 15.2209 16.0701Z"/>
<path id="path7_fill" d="M 2.73007 5.48879L 1.39978e-08 2.75907L 2.7741 -6.15826e-07L 5.51885 2.72972L 2.73007 5.48879Z"/>
<path id="path8_fill" d="M 2.7741 5.53282L -3.35948e-07 2.77375L 2.78878 1.11968e-07L 5.51885 2.77375L 2.7741 5.53282Z"/>
<path id="path9_fill" d="M 5.51885 2.75907L 2.7741 5.50347L -5.03922e-07 2.72972L 2.74475 -1.11968e-07L 5.51885 2.75907Z"/>
<path id="path10_fill" d="M 5.50417 2.75907L 2.75943 5.51814L 1.67974e-07 2.74439L 2.74475 -6.99802e-08L 5.50417 2.75907Z"/>
</defs>
</svg>
