<svg width="717" height="50" viewBox="0 0 717 50" version="1.1" xmlns="http://www.w3.org/2000/svg" xmlns:xlink="http://www.w3.org/1999/xlink">
<title>Primary icon</title>
<desc>Created using Figma</desc>
<g id="Canvas" transform="translate(341 -3543)">
<g id="Primary icon">
<g id="Vector" filter="url(#filter0_d)">
<use xlink:href="#path0_fill" transform="translate(-337 3545)" fill="#BDBDBD"/>
</g>
<g id="Group">
<g id="Vector">
<use xlink:href="#path1_fill" transform="translate(-80 3552)" fill="#BDBDBD"/>
</g>
<g id="Vector">
<use xlink:href="#path2_fill" transform="translate(-71.8958 3568.87)" fill="#BDBDBD"/>
</g>
</g>
<g id="Group">
<g id="Vector">
<use xlink:href="#path3_fill" transform="translate(157.183 3554.41)" fill="#BDBDBD"/>
</g>
<g id="Vector">
<use xlink:href="#path4_fill" transform="translate(166.643 3576.28)" fill="#BDBDBD"/>
</g>
<g id="Group">
<g id="Vector">
<use xlink:href="#path5_fill" transform="translate(164.913 3553)" fill="#BDBDBD"/>
</g>
<g id="Vector">
<use xlink:href="#path6_fill" transform="translate(165.2 3555.42)" fill="#BDBDBD"/>
</g>
<g id="Vector">
<use xlink:href="#path7_fill" transform="translate(169.605 3561.26)" fill="#BDBDBD"/>
</g>
<g id="Vector">
<use xlink:href="#path8_fill" transform="translate(172.97 3564.15)" fill="#BDBDBD"/>
</g>
</g>
</g>
<g id="users">
<g id="Vector">
<use xlink:href="#path9_fill" transform="translate(346 3556)" fill="#BDBDBD"/>
</g>
</g>
</g>
</g>
<defs>
<filter id="filter0_d" filterUnits="userSpaceOnUse" x="-341" y="3543" width="43" height="50" color-interpolation-filters="sRGB">
<feFlood flood-opacity="0" result="BackgroundImageFix"/>
<feColorMatrix in="SourceAlpha" type="matrix" values="0 0 0 0 0 0 0 0 0 0 0 0 0 0 0 0 0 0 255 0"/>
<feOffset dx="0" dy="2"/>
<feGaussianBlur stdDeviation="2"/>
<feColorMatrix type="matrix" values="0 0 0 0 0 0 0 0 0 0 0 0 0 0 0 0 0 0 0.15 0"/>
<feBlend mode="normal" in2="BackgroundImageFix" result="effect1_dropShadow"/>
<feBlend mode="normal" in="SourceGraphic" in2="effect1_dropShadow" result="shape"/>
</filter>
<path id="path0_fill" d="M 15.7043 40.3627C 15.1887 40.0097 14.8288 39.4734 14.6988 38.8644C 14.5688 38.2554 14.6787 37.6199 15.0057 37.0891C 15.6248 37.1987 16.2604 37.1737 16.8689 37.0157C 17.4773 36.8577 18.0441 36.5705 18.5303 36.1738C 19.0164 35.7772 19.4104 35.2804 19.6851 34.7178C 19.9597 34.1552 20.1086 33.5402 20.1213 32.9149C 20.1341 32.2896 20.0105 31.669 19.7591 31.0958C 19.5076 30.5226 19.1342 30.0103 18.6647 29.5944C 18.1951 29.1784 17.6405 28.8685 17.039 28.6861C 16.4375 28.5036 15.8034 28.453 15.1804 28.5375L 15.7446 21.8567C 16.1334 21.749 16.5282 21.6643 16.927 21.6028C 17.6569 21.4269 18.4243 21.4877 19.1169 21.7765C 19.1896 21.814 19.2702 21.8336 19.352 21.8336C 19.4339 21.8336 19.5145 21.814 19.5872 21.7765C 21.2128 21.1084 34.1645 13.7595 34.7154 13.3853C 34.8383 13.3233 34.9314 13.2153 34.9743 13.085C 35.0171 12.9547 35.0061 12.8128 34.9438 12.6905C 34.8814 12.5683 34.7728 12.4756 34.6418 12.433C 34.5107 12.3904 34.3681 12.4014 34.2451 12.4634L 15.8253 20.614L 17.0747 0.571424C 17.0908 0.436761 17.0524 0.301279 16.968 0.194782C 16.8836 0.0882849 16.7601 0.0194966 16.6247 0.00354967C 16.4893 -0.0123972 16.353 0.0258035 16.2459 0.109748C 16.1389 0.193693 16.0697 0.316505 16.0537 0.451168C 15.9462 1.07917 13.4875 15.737 13.3666 17.4874C 13.3628 17.5696 13.3792 17.6514 13.4143 17.7259C 13.4494 17.8004 13.5022 17.8653 13.5681 17.915C 14.0837 18.4627 14.4086 19.1606 14.4952 19.9059C 14.5768 20.2985 14.6351 20.6956 14.6698 21.0951L 8.62391 24.0079C 8.3772 22.931 7.72711 21.988 6.80596 21.3709C 5.8848 20.7538 4.76182 20.509 3.66557 20.6863C 2.56933 20.8636 1.58222 21.4497 0.905167 22.3253C 0.22811 23.2009 -0.0880092 24.3001 0.0211531 25.3993C 0.130315 26.4986 0.656554 27.5151 1.49276 28.242C 2.32896 28.969 3.41229 29.3517 4.52222 29.3123C 5.63216 29.2729 6.6853 28.8144 7.46727 28.03C 8.24925 27.2456 8.70129 26.1944 8.73139 25.0902L 14.6698 22.311L 14.119 28.8181C 13.313 29.1309 12.619 29.6754 12.1256 30.3822C 11.6322 31.089 11.3618 31.9259 11.3488 32.7862C 11.3358 33.6466 11.5809 34.4912 12.0528 35.2124C 12.5247 35.9335 13.2019 36.4985 13.9981 36.8352C 13.626 37.5788 13.5353 38.4307 13.7425 39.2353C 13.9497 40.0399 14.441 40.7436 15.1266 41.2178C 15.2389 41.2958 15.3777 41.3262 15.5125 41.3024C 15.6473 41.2786 15.767 41.2025 15.8454 41.0909C 15.9238 40.9793 15.9544 40.8412 15.9305 40.7072C 15.9065 40.5731 15.83 40.454 15.7178 40.3761L 15.7043 40.3627ZM 25.1091 17.6477C 22.422 19.1175 20.2186 20.3201 19.3722 20.761C 19.1196 20.6498 18.8529 20.5734 18.5795 20.5339L 25.1091 17.6477ZM 14.4414 17.3538C 14.522 16.4184 14.8982 13.8797 15.3685 10.9268L 15.0057 18.0085C 14.8749 17.7696 14.7122 17.5493 14.522 17.3538L 14.4414 17.3538ZM 2.48395 27.6824C 1.94528 27.3098 1.52978 26.7867 1.28996 26.1793C 1.05013 25.5719 0.996749 24.9074 1.13655 24.2698C 1.27636 23.6322 1.60308 23.0502 2.07542 22.5972C 2.54775 22.1443 3.14451 21.8407 3.79026 21.725C 4.43602 21.6092 5.10178 21.6865 5.7034 21.9469C 6.30503 22.2074 6.81552 22.6394 7.17034 23.1883C 7.52517 23.7372 7.70842 24.3784 7.69691 25.0309C 7.68541 25.6833 7.47967 26.3178 7.10571 26.854C 6.85713 27.2104 6.54033 27.5146 6.17344 27.7492C 5.80655 27.9837 5.39676 28.1441 4.96751 28.221C 4.53826 28.298 4.09797 28.29 3.67182 28.1976C 3.24567 28.1052 2.84201 27.9301 2.48395 27.6824ZM 13.0038 30.9427C 13.3785 30.407 13.9045 29.9937 14.5152 29.7552C 15.126 29.5167 15.7941 29.4636 16.4352 29.6027C 17.0763 29.7417 17.6616 30.0666 18.117 30.5364C 18.5725 31.0061 18.8777 31.5996 18.9941 32.2418C 19.1104 32.884 19.0328 33.5461 18.7709 34.1445C 18.509 34.7428 18.0746 35.2505 17.5227 35.6034C 16.9708 35.9563 16.326 36.1385 15.67 36.1271C 15.0139 36.1156 14.376 35.911 13.8368 35.5391C 13.4784 35.2919 13.1726 34.9768 12.9367 34.6119C 12.7008 34.2471 12.5396 33.8395 12.4622 33.4126C 12.3849 32.9857 12.3929 32.5478 12.4858 32.124C 12.5787 31.7002 12.7548 31.2988 13.0038 30.9427Z"/>
<path id="path1_fill" d="M 29.0387 25.9808L 25.2882 23.0427L 19.8928 14.8886L 21.7023 13.6892C 21.7785 13.6425 21.8442 13.5804 21.8954 13.507C 21.9465 13.4336 21.982 13.3503 21.9995 13.2624C 22.017 13.1746 22.0162 13.084 21.9971 12.9965C 21.9781 12.909 21.9411 12.8263 21.8887 12.7538L 14.6839 1.8487C 14.409 1.43284 13.9808 1.14358 13.4934 1.04453C 13.006 0.945471 12.4993 1.04474 12.0848 1.3205L 10.6263 2.28886L 10.6263 1.87071C 10.6234 1.37355 10.4246 0.897757 10.0732 0.547244C 9.72186 0.196731 9.24654 -8.6268e-06 8.75109 -1.25657e-07L 5.00062 -1.25657e-07C 4.50518 -8.6268e-06 4.02986 0.196731 3.6785 0.547244C 3.32714 0.897757 3.12829 1.37355 3.12539 1.87071L 3.12539 14.5475C 2.22575 14.8185 1.43655 15.372 0.873925 16.1268C 0.311299 16.8815 0.004964 17.7976 1.56874e-08 18.7401L 1.56874e-08 28.1046C 0.00287791 28.5999 0.200215 29.074 0.549212 29.4242C 0.898208 29.7744 1.37072 29.9724 1.86427 29.9753L 11.8655 29.9753C 12.3591 29.9724 12.8316 29.7744 13.1806 29.4242C 13.5296 29.074 13.7269 28.5999 13.7298 28.1046L 13.7298 18.7401C 13.7248 17.7976 13.4185 16.8815 12.8559 16.1268C 12.2932 15.372 11.504 14.8185 10.6044 14.5475L 10.6044 9.29851L 15.6599 16.9244L 15.7476 17.0234C 15.8471 17.127 15.9801 17.1917 16.1228 17.2058C 16.2654 17.2199 16.4085 17.1826 16.5262 17.1005L 18.8401 15.5709L 24.2465 23.725L 25.4856 28.3247C 25.5743 28.6704 25.7454 28.9893 25.9842 29.2538C 26.223 29.5184 26.5223 29.7207 26.8564 29.8433C 27.1118 29.9429 27.383 29.9951 27.657 29.9973C 28.1378 30.0303 28.6161 29.9035 29.0179 29.6365C 29.4197 29.3694 29.7227 28.9769 29.8799 28.5198C 30.0372 28.0626 30.04 27.5662 29.888 27.1073C 29.7359 26.6484 29.4375 26.2525 29.0387 25.9808ZM 4.37555 1.87071C 4.37555 1.70435 4.4414 1.54481 4.55863 1.42718C 4.67585 1.30955 4.83484 1.24347 5.00062 1.24347L 8.75109 1.24347C 8.91687 1.24347 9.07587 1.30955 9.19309 1.42718C 9.31032 1.54481 9.37617 1.70435 9.37617 1.87071L 9.37617 3.11418L 8.95945 3.38928C 8.75462 3.52483 8.57847 3.69962 8.44111 3.90362C 8.30374 4.10763 8.20785 4.33684 8.15895 4.57811C 8.11005 4.81938 8.10909 5.06796 8.15613 5.3096C 8.20317 5.55124 8.29728 5.78119 8.43307 5.98626L 9.38714 7.4168C 9.38594 7.43879 9.38594 7.46083 9.38714 7.48282L 9.38714 14.3604L 4.37555 14.3604L 4.37555 1.87071ZM 12.4906 18.7401L 12.4906 28.1046C 12.4906 28.271 12.4247 28.4305 12.3075 28.5481C 12.1903 28.6658 12.0313 28.7318 11.8655 28.7318L 1.87523 28.7318C 1.70945 28.7318 1.55046 28.6658 1.43324 28.5481C 1.31601 28.4305 1.25016 28.271 1.25016 28.1046L 1.25016 18.7401C 1.25016 17.9112 1.57828 17.1163 2.16235 16.5302C 2.74642 15.9442 3.53858 15.6149 4.36458 15.6149L 9.38714 15.6149C 10.2112 15.6178 11.0006 15.9483 11.5823 16.5341C 12.164 17.1199 12.4906 17.9131 12.4906 18.7401ZM 16.3617 15.7139L 9.47487 5.293C 9.38327 5.15437 9.35029 4.9849 9.38319 4.82187C 9.4161 4.65885 9.51219 4.51561 9.65033 4.42367L 12.7757 2.35489C 12.9139 2.26297 13.0828 2.22988 13.2452 2.2629C 13.4077 2.29592 13.5504 2.39234 13.6421 2.53096L 20.5398 12.9519L 16.3617 15.7139ZM 28.6549 27.8185C 28.6487 27.977 28.6046 28.1318 28.5264 28.2697C 28.4481 28.4075 28.338 28.5245 28.2053 28.6108C 28.0731 28.6868 27.9253 28.7313 27.7732 28.7411C 27.6211 28.7509 27.4689 28.7256 27.3281 28.6671C 27.1873 28.6087 27.0617 28.5187 26.9609 28.404C 26.8602 28.2894 26.7869 28.1531 26.7468 28.0056L 25.9682 25.1115L 28.3259 26.9602C 28.451 27.0569 28.5512 27.1823 28.618 27.3259C 28.6848 27.4695 28.7162 27.6271 28.7097 27.7855L 28.6549 27.8185Z"/>
<path id="path2_fill" d="M 1.948e-15 0.605228C 1.948e-15 0.771582 0.0658564 0.931123 0.183081 1.04875C 0.300306 1.16638 0.459297 1.23246 0.625078 1.23246C 0.95664 1.23246 1.27462 1.36463 1.50907 1.59989C 1.74352 1.83515 1.87523 2.15423 1.87523 2.48694L 1.87523 9.99177C 1.87523 10.1581 1.94109 10.3177 2.05832 10.4353C 2.17554 10.5529 2.33453 10.619 2.50031 10.619C 2.66609 10.619 2.82508 10.5529 2.94231 10.4353C 3.05953 10.3177 3.12539 10.1581 3.12539 9.99177L 3.12539 2.49794C 3.12249 1.83444 2.85779 1.1991 2.3892 0.73096C 1.92061 0.262818 1.28631 -5.4233e-06 0.625078 9.58618e-07C 0.463028 -9.91694e-05 0.307273 0.0629546 0.190658 0.175866C 0.074044 0.288777 0.00568594 0.442719 1.948e-15 0.605228Z"/>
<path id="path3_fill" d="M 8.51243 12.0395L 8.16346 12.0395L 8.16346 9.2452C 8.16346 9.16564 8.14766 9.08685 8.11697 9.01335C 8.08628 8.93984 8.04129 8.87306 7.98458 8.8168C 7.92788 8.76054 7.86055 8.71591 7.78646 8.68547C 7.71236 8.65502 7.63295 8.63935 7.55275 8.63935L 7.55275 2.88997C 7.55096 2.77931 7.51865 2.67125 7.45933 2.57753C 7.4 2.4838 7.31593 2.40798 7.21624 2.35831L 2.49266 0.0585554C 2.40078 0.0152779 2.29946 -0.00454857 2.19789 0.000876273C 2.09633 0.00630111 1.99774 0.0368052 1.91107 0.0896195C 1.82441 0.142434 1.75241 0.215886 1.70162 0.303307C 1.65083 0.390728 1.62285 0.489349 1.62023 0.590218L 1.62023 8.63935C 1.45826 8.63935 1.30293 8.70318 1.1884 8.8168C 1.07387 8.93042 1.00953 9.08452 1.00953 9.2452L 1.00953 12.0395L 0.610701 12.0395C 0.448733 12.0395 0.293399 12.1034 0.17887 12.217C 0.0643416 12.3306 -8.32014e-08 12.4847 -8.32014e-08 12.6454L -8.32014e-08 28.3974C -8.32014e-08 28.477 0.0157963 28.5558 0.0464869 28.6293C 0.0771775 28.7028 0.122161 28.7696 0.17887 28.8258C 0.235579 28.8821 0.302902 28.9267 0.376996 28.9572C 0.45109 28.9876 0.530503 29.0033 0.610701 29.0033L 8.51243 29.0033C 8.67439 29.0033 8.82973 28.9394 8.94426 28.8258C 9.05879 28.7122 9.12313 28.5581 9.12313 28.3974L 9.12313 12.6454C 9.12313 12.4847 9.05879 12.3306 8.94426 12.217C 8.82973 12.1034 8.67439 12.0395 8.51243 12.0395ZM 2.82917 1.56699L 6.29396 3.29799L 6.29396 8.65171L 2.82917 8.65171L 2.82917 1.56699ZM 2.16861 9.83868L 6.95452 9.83868L 6.95452 12.0395L 2.16861 12.0395L 2.16861 9.83868ZM 7.90173 27.8039L 1.20894 27.8039L 1.20894 13.2389L 7.90173 13.2389L 7.90173 27.8039Z"/>
<path id="path4_fill" d="M 20.2778 4.71659e-07L 0.623164 4.71659e-07C 0.457891 4.71659e-07 0.299387 0.065133 0.182521 0.18107C 0.0656552 0.297008 -1.90175e-07 0.454253 -1.90175e-07 0.618213C -1.90175e-07 0.782173 0.0656552 0.939419 0.182521 1.05536C 0.299387 1.17129 0.457891 1.23643 0.623164 1.23643L 19.3181 1.23643L 19.181 1.5208C 18.8048 2.29302 18.2174 2.94478 17.4858 3.4017C 16.7541 3.85862 15.9077 4.1023 15.0432 4.10493L 0.623164 4.10493C 0.457891 4.10493 0.299387 4.17007 0.182521 4.286C 0.0656552 4.40194 -1.90175e-07 4.55919 -1.90175e-07 4.72315C -1.90175e-07 4.88711 0.0656552 5.04435 0.182521 5.16029C 0.299387 5.27623 0.457891 5.34136 0.623164 5.34136L 15.0307 5.34136C 16.1279 5.33521 17.2011 5.02219 18.127 4.43824C 19.053 3.85429 19.7941 3.02309 20.2653 2.0401L 20.8262 0.890226C 20.8702 0.798138 20.8901 0.696517 20.884 0.594772C 20.878 0.493026 20.8461 0.394444 20.7914 0.308152C 20.7368 0.221859 20.661 0.150647 20.5712 0.101105C 20.4814 0.0515632 20.3805 0.0252944 20.2778 0.0247295L 20.2778 4.71659e-07Z"/>
<path id="path5_fill" d="M 0.956322 4.33863C 2.15006 3.24911 3.5512 2.4072 5.07746 1.86231C 6.60372 1.31743 8.22434 1.08056 9.84416 1.16561C 11.464 1.25066 13.0503 1.65592 14.5101 2.35759C 15.9698 3.05927 17.2736 4.04321 18.3447 5.25164C 19.4158 6.46008 20.2328 7.86864 20.7476 9.39464C 21.2625 10.9206 21.4648 12.5333 21.3427 14.1379C 21.2206 15.7425 20.7765 17.3068 20.0366 18.7388C 19.2967 20.1708 18.2758 21.4418 17.034 22.477C 16.9309 22.5843 16.8711 22.7254 16.8658 22.8736C 16.8606 23.0217 16.9102 23.1666 17.0054 23.2809C 17.1007 23.3952 17.2348 23.4708 17.3824 23.4936C 17.5301 23.5163 17.681 23.4845 17.8067 23.4043C 19.162 22.2634 20.2747 20.8661 21.0798 19.2939C 21.8849 17.7218 22.3663 16.0063 22.496 14.2476C 22.6256 12.4889 22.4008 10.7222 21.8348 9.05062C 21.2688 7.37902 20.3728 5.836 19.1992 4.51161C 18.0256 3.18722 16.5979 2.10799 14.9993 1.33689C 13.4007 0.56579 11.6634 0.118271 9.88857 0.020449C 8.11379 -0.0773734 6.33715 0.17646 4.66232 0.767136C 2.98749 1.35781 1.44802 2.2735 0.133745 3.46076C 0.0422933 3.57422 -0.00502258 3.7165 0.000422241 3.86166C 0.00586707 4.00683 0.0637097 4.14523 0.163408 4.25163C 0.263106 4.35803 0.398022 4.42534 0.543567 4.44131C 0.689112 4.45728 0.835597 4.42084 0.956322 4.33863Z"/>
<path id="path6_fill" d="M 8.93277 1.20134C 10.4995 1.20233 12.0425 1.58139 13.4286 2.30584C 14.8148 3.03029 16.0025 4.07837 16.8893 5.35969C 17.7762 6.64102 18.3355 8.11713 18.5191 9.66071C 18.7027 11.2043 18.5051 12.769 17.9432 14.2199C 17.3814 15.6708 16.4722 16.9644 15.2941 17.989C 14.116 19.0136 12.7043 19.7386 11.1808 20.1013C 9.65736 20.4641 8.0678 20.4537 6.54926 20.0712C 5.03071 19.6886 3.62876 18.9453 2.46432 17.9054C 2.40836 17.8387 2.33857 17.7846 2.25969 17.7469C 2.18081 17.7092 2.09469 17.6888 2.00715 17.687C 1.91962 17.6852 1.83272 17.7021 1.75236 17.7366C 1.67199 17.7711 1.60004 17.8223 1.54137 17.8867C 1.4827 17.9512 1.43869 18.0274 1.41232 18.1103C 1.38596 18.1931 1.37785 18.2806 1.38855 18.3668C 1.39925 18.453 1.42851 18.5359 1.47435 18.6099C 1.52018 18.6839 1.58152 18.7473 1.65421 18.7957C 3.28579 20.2524 5.32377 21.1848 7.49987 21.4702C 9.67597 21.7557 11.8882 21.3807 13.8453 20.3947C 15.8025 19.4087 17.4128 17.8579 18.4643 15.9464C 19.5158 14.0349 19.9592 11.8524 19.7361 9.68603C 19.5131 7.51971 18.634 5.47116 17.2146 3.81006C 15.7953 2.14895 13.9022 0.953152 11.7845 0.380068C 9.66687 -0.193017 7.42392 -0.116523 5.35093 0.599481C 3.27794 1.31548 1.47209 2.63744 0.171077 4.39132C 0.110848 4.45328 0.0646215 4.52727 0.0354774 4.60835C 0.00633327 4.68943 -0.00505935 4.77574 0.00205773 4.86154C 0.0091748 4.94733 0.0346384 5.03063 0.0767524 5.10589C 0.118866 5.18115 0.176664 5.24665 0.246294 5.29801C 0.315924 5.34938 0.395788 5.38543 0.480566 5.40378C 0.565343 5.42212 0.653088 5.42233 0.737954 5.40439C 0.82282 5.38646 0.902859 5.35078 0.972738 5.29975C 1.04262 5.24872 1.10073 5.1835 1.14321 5.10844C 2.04407 3.89919 3.21781 2.91597 4.57045 2.23751C 5.92309 1.55905 7.41707 1.20419 8.93277 1.20134Z"/>
<path id="path7_fill" d="M 11.1833 0.206503L 0.140816 11.1736C 0.0435996 11.2898 -0.00638467 11.4378 0.000654597 11.5886C 0.00769387 11.7394 0.07125 11.8822 0.178871 11.989C 0.286492 12.0957 0.43042 12.1588 0.582456 12.1658C 0.734492 12.1728 0.883679 12.1232 1.00078 12.0267L 12.0433 1.072C 12.1086 1.01817 12.162 0.951395 12.1998 0.875953C 12.2377 0.800512 12.2593 0.71806 12.2632 0.63387C 12.2672 0.549679 12.2533 0.465601 12.2226 0.38701C 12.192 0.30842 12.1451 0.237044 12.085 0.177449C 12.0249 0.117853 11.953 0.0713479 11.8738 0.0409047C 11.7945 0.0104615 11.7098 -0.00324945 11.6249 0.000648581C 11.5401 0.00454662 11.457 0.0259671 11.3809 0.0635419C 11.3049 0.101117 11.2376 0.154019 11.1833 0.218866L 11.1833 0.206503Z"/>
<path id="path8_fill" d="M 0.140817 8.36193C 0.0436006 8.4781 -0.00638491 8.6261 0.000654359 8.77693C 0.00769363 8.92776 0.0712497 9.07054 0.178871 9.17731C 0.286492 9.28408 0.430421 9.34713 0.582457 9.35411C 0.734493 9.36109 0.88368 9.31151 1.00078 9.21506L 9.28887 0.992831C 9.38609 0.876656 9.43607 0.728657 9.42903 0.577829C 9.42199 0.427 9.35844 0.284215 9.25082 0.177449C 9.1432 0.0706833 8.99927 0.00763221 8.84723 0.000648877C 8.6952 -0.00633446 8.54601 0.0432538 8.4289 0.139697L 0.140817 8.36193Z"/>
<path id="path9_fill" d="M 27.507 21.4445L 22.7305 19.0565C 22.28 18.831 22 18.378 22 17.874L 22 16.1835C 22.1145 16.0435 22.235 15.884 22.3595 15.708C 22.979 14.833 23.4755 13.859 23.8365 12.8085C 24.542 12.485 25 11.7875 25 11L 25 9C 25 8.5185 24.82 8.052 24.5 7.6875L 24.5 5.028C 24.528 4.753 24.638 3.116 23.454 1.7655C 22.427 0.594 20.7605 0 18.5 0C 16.2395 0 14.573 0.594 13.546 1.765C 12.8285 2.5835 12.587 3.5055 12.514 4.1675C 11.657 3.7245 10.647 3.5 9.5 3.5C 4.3055 3.5 4.003 7.9275 4 8L 4 10.2895C 3.676 10.6425 3.5 11.05 3.5 11.4545L 3.5 13.1815C 3.5 13.721 3.7415 14.224 4.1555 14.564C 4.568 16.119 5.5825 17.294 5.9775 17.7065L 5.9775 19.078C 5.9775 19.4715 5.7635 19.8325 5.392 20.0355L 2.0655 22.122C 0.7915 22.817 0 24.1505 0 25.6015L 0 27.5L 7 27.5L 8 27.5L 30 27.5L 30 25.4785C 30 23.7595 29.0445 22.2135 27.507 21.4445ZM 7 25.381L 7 26.5L 1 26.5L 1 25.6015C 1 24.5165 1.592 23.5195 2.5705 22.985L 5.8965 20.8985C 6.563 20.535 6.977 19.838 6.977 19.078L 6.977 17.2825L 6.818 17.134C 6.805 17.122 5.4765 15.867 5.084 14.1565L 5.0385 13.9585L 4.8675 13.8485C 4.6375 13.6995 4.5 13.45 4.5 13.1815L 4.5 11.4545C 4.5 11.2745 4.6225 11.0605 4.8355 10.8675L 5 10.719L 4.999 8.029C 5.008 7.8855 5.2685 4.5 9.5 4.5C 10.6965 4.5 11.704 4.7765 12.5 5.322L 12.5 7.6875C 12.18 8.052 12 8.5185 12 9L 12 11C 12 11.152 12.0175 11.3015 12.0505 11.4465C 12.064 11.5045 12.091 11.5575 12.1095 11.6135C 12.137 11.6975 12.159 11.784 12.1975 11.8635C 12.198 11.8645 12.1985 11.865 12.199 11.866C 12.327 12.13 12.5135 12.366 12.7485 12.5545C 12.751 12.564 12.754 12.5725 12.7565 12.5815C 12.7865 12.696 12.818 12.81 12.852 12.9215L 12.8925 13.052C 12.8995 13.075 12.908 13.0985 12.9155 13.1215C 12.933 13.1755 12.95 13.229 12.968 13.282C 12.998 13.3695 13.0295 13.46 13.066 13.5585C 13.0815 13.5995 13.0985 13.6365 13.1145 13.677C 13.1555 13.7815 13.1965 13.8825 13.2395 13.9825C 13.25 14.0065 13.259 14.0325 13.2695 14.056L 13.2975 14.119C 13.3105 14.148 13.324 14.174 13.337 14.2025C 13.386 14.3095 13.434 14.413 13.484 14.513C 13.492 14.529 13.4995 14.5465 13.5075 14.5625C 13.539 14.625 13.5705 14.684 13.602 14.744C 13.656 14.847 13.709 14.944 13.762 15.038C 13.788 15.084 13.8135 15.129 13.839 15.1725C 13.911 15.2955 13.9795 15.4085 14.046 15.5135C 14.0605 15.536 14.0745 15.5595 14.0885 15.581C 14.2095 15.7685 14.3145 15.9205 14.4015 16.039C 14.4245 16.0705 14.4445 16.0975 14.464 16.124C 14.475 16.1385 14.49 16.1595 14.4995 16.1725L 14.4995 17.827C 14.4995 18.311 14.2355 18.755 13.811 18.987L 12.488 19.7085L 12.2575 19.688L 12.1635 19.8855L 9.3505 21.42C 7.9005 22.212 7 23.729 7 25.381ZM 29 26.5L 8 26.5L 8 25.381C 8 24.0955 8.701 22.914 9.8295 22.299L 14.29 19.866C 15.0365 19.4585 15.5 18.677 15.5 17.8275L 15.5 15.8185L 15.5 15.818L 15.403 15.702L 15.384 15.6795C 15.383 15.678 15.352 15.6405 15.3015 15.5745C 15.2985 15.5705 15.2955 15.5665 15.292 15.5625C 15.2655 15.528 15.2345 15.4865 15.199 15.437C 15.1985 15.436 15.198 15.4355 15.1975 15.4345C 15.123 15.331 15.0295 15.1965 14.9255 15.0345C 14.923 15.031 14.921 15.027 14.9185 15.0235C 14.8695 14.947 14.8175 14.8635 14.7645 14.775C 14.7605 14.7685 14.7565 14.762 14.7525 14.755C 14.6395 14.5655 14.5195 14.351 14.4 14.1135C 14.4 14.1135 14.3995 14.113 14.3995 14.1125C 14.336 13.985 14.2725 13.851 14.2105 13.7115C 14.202 13.692 14.193 13.673 14.1845 13.6535C 14.157 13.591 14.1295 13.5255 14.1015 13.458C 14.0915 13.4335 14.0815 13.408 14.0715 13.383C 14.0455 13.3175 14.019 13.2515 13.991 13.176C 13.94 13.04 13.892 12.898 13.846 12.7515L 13.8185 12.6625C 13.8155 12.6525 13.812 12.6425 13.809 12.632C 13.762 12.474 13.717 12.3125 13.679 12.1465L 13.6335 11.9485L 13.463 11.8385C 13.173 11.6515 13 11.338 13 11L 13 9C 13 8.7195 13.119 8.458 13.335 8.2625L 13.5 8.114L 13.5 5L 13.5 4.823L 13.4865 4.8125C 13.4695 4.4515 13.491 3.345 14.298 2.4245C 15.1265 1.479 16.5405 1 18.5 1C 20.4525 1 21.8635 1.4755 22.693 2.414C 23.6665 3.5145 23.5055 4.9225 23.5045 4.9345L 23.5 8.114L 23.665 8.263C 23.881 8.458 24 8.7195 24 9L 24 11C 24 11.4365 23.714 11.8185 23.289 11.9495L 23.04 12.026L 22.96 12.2735C 22.6255 13.314 22.149 14.275 21.543 15.13C 21.3945 15.3405 21.25 15.527 21.1245 15.6695L 21 15.8115L 21 17.874C 21 18.759 21.4915 19.5545 22.283 19.9505L 27.0595 22.3385C 28.2565 22.937 29 24.14 29 25.4785L 29 26.5Z"/>
</defs>
</svg>
